<svg height="761.60437" viewBox="0 0 1755.707 761.60437" width="1755.707" xmlns="http://www.w3.org/2000/svg" xmlns:xlink="http://www.w3.org/1999/xlink">
  <filter id="a" color-interpolation-filters="sRGB" height="1.159623" width="1.131163" x="-.065581" y="-.079811">
    <feGaussianBlur stdDeviation="14.865105" />
  </filter>
  <filter id="b" color-interpolation-filters="sRGB" height="1.159623" width="1.131163" x="-.065581" y="-.079811">
    <feGaussianBlur stdDeviation="14.865104" />
  </filter>
  <g transform="translate(-.000006 -170.44774)">
    <path d="m5.999999 542.763h534.000001c2.77 0 5 2.23 5 5v437.00699c0 2.77-2.23 5-5 5h-534.000001c-2.7699997 0-4.99999948-2.23-4.99999948-5v-437.00699c0-2.77 2.22999978-5 4.99999948-5z" fill-opacity=".250996" filter="url(#a)" transform="matrix(1.4692588 0 0 1.4692588 50.948394 -574.59381)" />
    <path d="m59.763945 214.04995h784.584205c4.06984 0 7.34629 3.27645 7.34629 7.3463v642.07636c0 4.06985-3.27645 7.34629-7.34629 7.34629h-784.584205c-4.069846 0-7.346293-3.27644-7.346293-7.34629v-642.07636c0-4.06985 3.276447-7.3463 7.346293-7.3463z" fill="#fff" />
    <path d="m118.5343 390.18731h667.04349c4.06985 0 7.3463 3.27645 7.3463 7.3463v157.21069c0 4.06984-3.27645 7.34629-7.3463 7.34629h-667.04349c-4.06985 0-7.3463-3.27645-7.3463-7.34629v-157.21069c0-4.06985 3.27645-7.3463 7.3463-7.3463z" fill="#eee" />
    <g fill="#002bff">
      <path d="m135.14261 316.25153c-2.78329-2.05326-6.5704-3.65022-10.95067-3.65022-6.66167 0-11.77199 3.46771-11.77199 9.85561 0 5.06468 3.23958 6.98105 9.62748 8.66929 5.56659 1.46009 8.89742 2.37265 8.89742 5.65785 0 2.69203-2.28139 4.15212-6.29664 4.15212-4.9278 0-9.58184-2.55515-11.13319-4.15212l-2.32702 4.38027c3.69586 2.82893 8.44115 4.38027 13.36896 4.38027 6.52478 0 11.86323-2.69205 11.86323-9.30807 0-5.886-4.1065-7.80237-10.67691-9.39934-5.38408-1.32321-7.98487-2.09888-7.98487-5.20157 0-2.78331 2.00763-4.47153 6.29664-4.47153 3.87837 0 7.57422 1.96199 8.76055 3.28521z" stroke-width="1.140695" />
      <path d="m151.62923 345.68148c7.43734 0 12.27389-5.74911 12.27389-12.36514 0-6.61604-4.83655-12.36515-12.27389-12.36515-7.39171 0-12.27388 5.74911-12.27388 12.36515 0 6.61603 4.79092 12.36514 12.27388 12.36514zm-7.11794-12.31952c0-4.56278 3.19395-8.12175 7.11794-8.12175 3.96962 0 7.11794 3.51335 7.11794 8.07613 0 4.56279-3.14832 8.07612-7.11794 8.07612s-7.11794-3.42208-7.11794-8.0305z" stroke-width="1.140695" />
      <path d="m181.90615 345.68148c6.20538 0 10.58565-5.52096 10.58565-12.41077 0-6.61603-4.74529-12.31952-11.27007-12.31952-3.6046 0-6.61603 1.87075-8.44115 4.69968v-4.28902h-4.4259v33.58207h5.01906v-14.19025c1.68823 2.92018 4.69967 4.92781 8.53241 4.92781zm-1.6426-4.28902c-2.92018 0-5.65785-2.28139-6.88981-5.20157v-6.25101c.73005-2.64641 3.924-4.69967 6.52478-4.69967 4.24339 0 7.43734 3.60461 7.43734 8.0305 0 4.15214-2.82893 8.12175-7.07231 8.12175z" stroke-width="1.140695" />
      <path d="m218.44976 330.66993c0-5.20157-1.59697-9.71874-7.52859-9.71874-3.69584 0-7.02668 1.96201-8.85179 5.20158v-14.23589h-5.01906v33.30832h5.01906v-14.19025c1.00381-3.2852 4.1065-5.61223 6.84417-5.61223 2.87456 0 4.51715 2.09888 4.51715 6.43353v13.36895h5.01906z" stroke-width="1.140695" />
      <path d="m229.33913 345.2252v-23.86335h-5.01906v23.86335zm0-27.78734v-5.52098h-5.01906v5.52098z" stroke-width="1.140695" />
      <path d="m241.71283 345.68148c3.55897 0 6.84417-1.55135 8.98869-4.33464l.13693 1.50571c.22813 1.50573 1.3232 2.6008 3.23957 2.6008.68443 0 1.32322-.0457 2.28139-.22815v-4.28902c-.95817-.0455-1.3232-.50189-1.3232-1.6426v-8.62365c0-6.20539-3.87837-9.71874-10.40314-9.71874-3.37646 0-6.52479 1.04945-9.58185 3.1027l1.55135 3.19394c2.60078-1.77947 5.06468-2.73767 7.57422-2.73767 3.74148 0 5.84036 2.09889 5.84036 5.61224v1.6426c-1.73386-.68443-4.06088-1.09507-6.29664-1.09507-5.93162 0-10.08376 3.05706-10.08376 7.52858 0 4.2434 3.46772 7.48297 8.07614 7.48297zm1.36883-3.69585c-2.69203 0-4.69966-1.82511-4.69966-4.19776 0-2.50954 2.55516-4.24339 6.11413-4.24339 1.82512 0 3.83274.41065 5.52096 1.04944v3.14832c0 .54753-.36502 1.23195-.95817 1.73385-1.18633 1.55135-3.55897 2.50954-5.97726 2.50954z" stroke-width="1.140695" />
    </g>
    <g fill="#000023">
      <g stroke-width=".991201">
        <path d="m123.44251 304.098h-3.2911v-25.38018h-8.96341v-2.92327h21.21791v2.92327h-8.9634z" />
        <path d="m153.48831 304.098-3.89124-12.4481q-.36783-1.1422-1.37452-5.18832h-.15487q-.77438 3.3879-1.35516 5.22705l-4.0074 12.40937h-3.717l-5.78846-21.2179h3.36853q2.0521 7.99543 3.11687 12.17705 1.08412 4.18165 1.239 5.6336h.15487q.21295-1.10349.67758-2.84584.48398-1.7617.83245-2.78776l3.89124-12.17705h3.48469l3.79445 12.17705q1.08412 3.32983 1.47131 5.59488h.15487q.0774-.69694.40655-2.14889.34847-1.45197 4.04611-15.62304h3.32982l-5.8659 21.2179z" />
        <path d="m175.94522 304.4852q-4.70434 0-7.43401-2.86521-2.71032-2.86518-2.71032-7.95671 0-5.13024 2.51672-8.15031 2.53608-3.02007 6.79515-3.02007 3.98804 0 6.31117 2.63289 2.32313 2.61351 2.32313 6.9113v2.03274h-14.61635q.0968 3.73637 1.87786 5.6723 1.80043 1.93594 5.05281 1.93594 3.42661 0 6.77579-1.4326v2.8652q-1.70363.73566-3.23302 1.04541-1.51004.32912-3.65893.32912zm-.87118-19.30133q-2.55544 0-4.08483 1.6649-1.51003 1.66491-1.78106 4.60754h11.09294q0-3.03943-1.35516-4.64625-1.35516-1.62619-3.87189-1.62619z" />
        <path d="m202.25465 304.098-.63885-3.02006h-.15487q-1.58748 1.99402-3.17494 2.71031-1.56812.69695-3.92996.69695-3.15559 0-4.95601-1.62619-1.78107-1.62619-1.78107-4.62691 0-6.42733 10.27985-6.73708l3.60084-.11621v-1.31643q0-2.49737-1.08412-3.67829-1.06477-1.20028-3.42662-1.20028-2.65224 0-6.00141 1.62619l-.98733-2.45865q1.56811-.85181 3.42661-1.3358 1.87786-.48399 3.75573-.48399 3.79444 0 5.61423 1.68427 1.83915 1.68427 1.83915 5.40127v14.48084zm-7.25977-2.26505q3.00071 0 4.70433-1.64554 1.72299-1.64556 1.72299-4.60755v-1.91658l-3.21365.13547q-3.83317.13546-5.5368 1.20029-1.68427 1.04541-1.68427 3.27173 0 1.74235 1.04541 2.65225 1.06476.90988 2.96199.90988z" />
        <path d="m214.45107 293.23737q.83245-1.18091 2.53609-3.0975l6.85322-7.25977h3.81382l-8.59559 9.04083 9.19572 12.17707h-3.89124l-7.49209-10.02817-2.41993 2.09081v7.93736h-3.17494v-30.12324h3.17494v15.97152q0 1.06477-.15486 3.29109z" />
      </g>
      <path d="m237.65722 295.33329h-2.60656v8.95883h-2.27833v-8.95883h-1.75701v-1.06194l1.75701-.69509v-.69508q0-1.89217.88817-2.79964.88815-.91711 2.71275-.91711 1.19709 0 2.35556.3958l-.59855 1.7184q-.83989-.27031-1.60255-.27031-.77232 0-1.12951.48269-.34754.47304-.34754 1.42878v.69509h2.60656z" stroke-width=".494281" />
      <path d="m248.95231 298.93419q0 2.61622-1.34189 4.08361-1.34191 1.4674-3.73608 1.4674-1.49635 0-2.64516-.67577-1.14883-.67578-1.76667-1.94044-.61785-1.26466-.61785-2.9348 0-2.5969 1.33223-4.05464 1.33224-1.45776 3.75539-1.45776 2.31693 0 3.66849 1.49637 1.35154 1.4867 1.35154 4.01603zm-7.77141 0q0 3.69746 2.73207 3.69746 2.7031 0 2.7031-3.69746 0-3.65884-2.72242-3.65884-1.42878 0-2.07559.94609-.63716.94608-.63716 2.71275z" stroke-width=".494281" />
      <path d="m256.98438 293.42179q.68542 0 1.1295.0965l-.22204 2.11421q-.4827-.11578-1.00401-.11578-1.36121 0-2.21075.88815-.83988.88817-.83988 2.3073v5.57996h-2.26869v-10.67723h1.77632l.29928 1.88252h.11592q.53096-.95574 1.3805-1.51568.85921-.55993 1.84391-.55993z" stroke-width=".494281" />
    </g>
    <path d="m653.3445 272.82057h132.23329c4.06985 0 7.3463 3.27644 7.3463 7.34629v73.46294c0 4.06985-3.27645 7.3463-7.3463 7.3463h-132.23329c-4.06984 0-7.34629-3.27645-7.34629-7.3463v-73.46294c0-4.06985 3.27645-7.34629 7.34629-7.34629z" fill="#eee" />
    <path d="m118.5343 591.65942h667.04349c4.06985 0 7.3463 3.27645 7.3463 7.3463v80.80923c0 4.06985-3.27645 7.3463-7.3463 7.3463h-667.04349c-4.06985 0-7.3463-3.27645-7.3463-7.3463v-80.80923c0-4.06985 3.27645-7.3463 7.3463-7.3463z" fill="#eee" />
    <path d="m118.5343 716.54642h667.04349c4.06985 0 7.3463 3.27645 7.3463 7.3463v80.80923c0 4.06985-3.27645 7.34629-7.3463 7.34629h-667.04349c-4.06985 0-7.3463-3.27644-7.3463-7.34629v-80.80923c0-4.06985 3.27645-7.3463 7.3463-7.3463z" fill="#eee" />
    <path d="m142.90807 446.99653v-6.17095h4.54955l3.92036 6.17095h2.46837l-4.16235-6.58234c2.17798-.55659 3.60576-2.71037 3.60576-5.10615 0-2.71037-2.17798-5.49333-5.20295-5.49333h-7.35672v17.18182zm0-15.24586h5.05775c1.66978 0 3.12176 1.62139 3.12176 3.55737 0 1.88759-1.18578 3.58157-2.97657 3.58157h-5.20294z" />
    <path d="m161.43713 447.23851c2.54098 0 4.69476-1.33097 5.51755-3.19436l-1.83918-.5082c-.5324 1.25839-2.05698 2.10539-3.60577 2.10539-2.20217 0-4.06555-1.74238-4.25915-4.23496h10.47849c.0242-.14516.0484-.48399.0484-.82279 0-3.38796-2.49258-6.43713-6.31614-6.43713-3.79936 0-6.46133 2.97656-6.46133 6.53393s2.63777 6.55812 6.43713 6.55812zm-4.23495-7.40512c.1694-2.39577 2.00858-4.08976 4.25915-4.08976 2.25058 0 4.08976 1.66979 4.30756 4.08976z" />
    <path d="m181.13082 439.4462c0-3.04917-.84699-5.29974-3.77516-5.29974-2.22638 0-4.25916 1.16158-5.25135 2.92816v-2.71037h-1.93598v12.63228h2.12958v-7.62293c.58079-1.91178 2.46837-3.31537 4.21076-3.31537 1.66978 0 2.49257 1.1858 2.49257 3.87197v7.06633h2.12958z" />
    <path d="m189.95994 447.23851c3.79936 0 6.38874-3.02497 6.38874-6.53392 0-3.53316-2.61358-6.55813-6.38874-6.55813-3.75096 0-6.36453 3.02497-6.36453 6.55813 0 3.50895 2.56517 6.53392 6.36453 6.53392zm-4.18655-6.50972c0-2.63778 1.88758-4.74315 4.18655-4.74315 2.32318 0 4.21076 2.08117 4.21076 4.69475 0 2.63777-1.88758 4.71895-4.21076 4.71895-2.32317 0-4.18655-2.03278-4.18655-4.67055z" />
    <path d="m204.45635 446.99653 4.98515-12.63228h-2.03278l-4.01716 10.76889-3.99296-10.76889h-2.20217l4.98515 12.63228z" />
    <path d="m214.43723 447.23851c1.96018 0 3.77517-.82278 4.91255-2.32316l.0483.89538c.0968.70179.605 1.28259 1.452 1.28259.31459 0 .58078-.0242 1.01639-.0968v-1.83919c-.48401-.0242-.6776-.24199-.6776-.77439v-5.15454c0-3.19438-1.98438-5.08195-5.27555-5.08195-1.66978 0-3.29117.55659-4.91255 1.64557l.70179 1.3794c1.37938-.96799 2.71037-1.47619 4.01716-1.47619 2.10539 0 3.33957 1.25839 3.33957 3.31537v1.01638c-.968-.38719-2.29898-.62919-3.53316-.62919-3.12178 0-5.32395 1.59719-5.32395 3.89617 0 2.22636 1.83918 3.94454 4.23495 3.94454zm.5566-1.59717c-1.57299 0-2.75877-1.089-2.75877-2.51678 0-1.45198 1.47618-2.44417 3.60577-2.44417 1.08898 0 2.22636.2178 3.21855.605v1.86337c0 .2904-.16939.65339-.45979.94379-.67759.94379-2.10537 1.54879-3.60576 1.54879z" />
    <path d="m231.2969 434.29165c-.16939-.0242-.38719-.0242-.70179-.0242-1.59719.12107-3.12177 1.28259-3.99296 3.02497v-2.92817h-1.98438v12.63232h2.12958v-7.79232c.6776-1.83919 2.41998-2.92817 4.54955-2.97657z" />
    <path d="m244.50391 447.23851c3.79937 0 6.38873-3.02497 6.38873-6.53392 0-3.53316-2.61356-6.55813-6.38873-6.55813-3.75096 0-6.36453 3.02497-6.36453 6.55813 0 3.50895 2.56517 6.53392 6.36453 6.53392zm-4.18655-6.50972c0-2.63778 1.88758-4.74315 4.18655-4.74315 2.32317 0 4.21076 2.08117 4.21076 4.69475 0 2.63777-1.88759 4.71895-4.21076 4.71895s-4.18655-2.03278-4.18655-4.67055z" />
    <path d="m257.92532 447.23851c3.04917 0 5.00935-1.50037 5.00935-3.84775 0-2.15377-1.59719-2.83137-4.96095-3.62997-2.15377-.53238-2.97657-.79858-2.97657-1.98438 0-1.45198 1.23419-2.08117 2.78298-2.08117 1.37938 0 2.75877.45979 3.82355 1.40358l.96799-1.28259c-1.13738-.99218-2.85556-1.66977-4.74314-1.66977-2.68618 0-4.83996 1.37939-4.83996 3.92035 0 1.98438 1.28259 2.56518 4.33175 3.31537 2.41999.5808 3.55737.94379 3.55737 2.20218 0 1.30678-1.18579 2.08118-3.00077 2.08118-1.62138 0-3.09756-.5808-4.57376-1.69398l-.91958 1.42778c1.40359 1.18579 3.53316 1.83917 5.54174 1.83917z" />
    <path d="m271.64771 444.50394c0 1.66979 1.01639 2.66198 2.66198 2.66198.75019 0 1.83917-.21779 2.54098-.50819l-.3388-1.71818c-.41141.16939-.94379.29038-1.30679.29038-.89539 0-1.42779-.55658-1.42779-1.50037v-14.39886h-2.12958z" />
    <path d="m280.6296 446.99653v-12.63228h-2.12957v12.63228zm0-15.00385v-2.66198h-2.12957v2.66198z" />
    <path d="m290.00625 446.99653 4.98515-12.63228h-2.03278l-4.01716 10.76889-3.99296-10.76889h-2.20218l4.98515 12.63228z" />
    <path d="m303.75435 434.29165c-.16939-.0242-.38719-.0242-.70179-.0242-1.59719.12107-3.12176 1.28259-3.99296 3.02497v-2.92817h-1.98438v12.63232h2.12959v-7.79232c.67759-1.83919 2.41997-2.92817 4.54954-2.97657z" />
    <path d="m311.1005 447.23851c3.79936 0 6.38873-3.02497 6.38873-6.53392 0-3.53316-2.61357-6.55813-6.38873-6.55813-3.75096 0-6.36454 3.02497-6.36454 6.55813 0 3.50895 2.56517 6.53392 6.36454 6.53392zm-4.18657-6.50972c0-2.63778 1.88759-4.74315 4.18657-4.74315 2.32318 0 4.21075 2.08117 4.21075 4.69475 0 2.63777-1.88757 4.71895-4.21075 4.71895s-4.18657-2.03278-4.18657-4.67055z" />
    <path d="m324.5219 447.23851c3.04918 0 5.00935-1.50037 5.00935-3.84775 0-2.15377-1.59717-2.83137-4.96094-3.62997-2.15378-.53238-2.97657-.79858-2.97657-1.98438 0-1.45198 1.23418-2.08117 2.78297-2.08117 1.37938 0 2.75877.45979 3.82355 1.40358l.96799-1.28259c-1.13738-.99218-2.85556-1.66977-4.74315-1.66977-2.68617 0-4.83994 1.37939-4.83994 3.92035 0 1.98438 1.28259 2.56518 4.33176 3.31537 2.41997.5808 3.55735.94379 3.55735 2.20218 0 1.30678-1.18578 2.08118-3.00077 2.08118-1.62138 0-3.09756-.5808-4.57374-1.69398l-.9196 1.42778c1.40359 1.18579 3.53316 1.83917 5.54174 1.83917z" />
    <path d="m341.43865 447.23851c1.96018 0 3.77516-.82278 4.91256-2.32316l.0483.89538c.0968.70179.60499 1.28259 1.45198 1.28259.31459 0 .58079-.0242 1.01638-.0968v-1.83919c-.48398-.0242-.67759-.24199-.67759-.77439v-5.15454c0-3.19438-1.98438-5.08195-5.27555-5.08195-1.66977 0-3.29115.55659-4.91254 1.64557l.70179 1.3794c1.37939-.96799 2.71037-1.47619 4.01716-1.47619 2.10538 0 3.33957 1.25839 3.33957 3.31537v1.01638c-.96799-.38719-2.29898-.62919-3.53317-.62919-3.12177 0-5.32395 1.59719-5.32395 3.89617 0 2.22636 1.83919 3.94454 4.23496 3.94454zm.5566-1.59717c-1.57299 0-2.75877-1.089-2.75877-2.51678 0-1.45198 1.47618-2.44417 3.60575-2.44417 1.089 0 2.22639.2178 3.21858.605v1.86337c0 .2904-.16941.65339-.45981.94379-.67759.94379-2.10537 1.54879-3.60575 1.54879z" />
    <path d="m355.51536 447.23851c2.17797 0 4.13815-1.06478 5.25135-2.95235l.0483 1.47617c.0242.75019.67759 1.30679 1.50037 1.30679.2662 0 .48401 0 .968-.0726v-1.83919c-.48399-.0242-.6776-.24198-.6776-.77439v-10.01869h-2.12957v7.91332c-.7502 1.93597-2.41999 3.12176-4.16237 3.12176-1.79077 0-2.68617-1.28259-2.68617-3.87196v-7.16312h-2.12957v7.57452c0 3.48476 1.37938 5.29974 4.01716 5.29974z" />
    <path d="m372.20259 444.67335c-.24198.14516-1.01638.53238-1.86337.53238-.75019 0-1.37938-.41139-1.42778-1.33098v-7.84072h2.83136v-1.66978h-2.83136v-4.21075h-2.12959v4.21075h-1.71818v1.66978h1.71818v8.49411c0 1.81499 1.30679 2.63778 2.85558 2.63778 1.35519 0 2.54097-.55659 3.07337-.79859z" />
    <path d="m380.01306 447.23851c3.79937 0 6.38873-3.02497 6.38873-6.53392 0-3.53316-2.61356-6.55813-6.38873-6.55813-3.75096 0-6.36454 3.02497-6.36454 6.55813 0 3.50895 2.56518 6.53392 6.36454 6.53392zm-4.18655-6.50972c0-2.63778 1.88758-4.74315 4.18655-4.74315 2.32317 0 4.21076 2.08117 4.21076 4.69475 0 2.63777-1.88759 4.71895-4.21076 4.71895-2.32318 0-4.18655-2.03278-4.18655-4.67055z" />
    <path d="m408.05113 439.4462c0-3.02497-.91958-5.29974-3.82356-5.29974-2.05697 0-3.70256 1.06479-4.81574 3.07337-.2904-1.79079-1.57299-3.07337-3.67837-3.07337-2.05697 0-3.77517 1.06479-4.79156 2.92816v-2.71037h-1.93597v12.63228h2.12958v-7.62293c.5808-1.98438 2.10537-3.31537 3.79935-3.31537 1.66979 0 2.51679 1.1858 2.51679 3.87197v7.06633h2.12957v-7.59873c.5808-1.96018 2.08117-3.33957 3.79935-3.33957 1.66979 0 2.54099 1.23419 2.54099 3.87197v7.06633h2.12957z" />
    <path d="m414.6051 447.23851c1.96018 0 3.77517-.82278 4.91255-2.32316l.0483.89538c.0968.70179.605 1.28259 1.45198 1.28259.3146 0 .5808-.0242 1.01639-.0968v-1.83919c-.48399-.0242-.67759-.24199-.67759-.77439v-5.15454c0-3.19438-1.98437-5.08195-5.27554-5.08195-1.66978 0-3.29117.55659-4.91255 1.64557l.70179 1.3794c1.37938-.96799 2.71037-1.47619 4.01716-1.47619 2.10537 0 3.33956 1.25839 3.33956 3.31537v1.01638c-.96799-.38719-2.29898-.62919-3.53315-.62919-3.12178 0-5.32395 1.59719-5.32395 3.89617 0 2.22636 1.83917 3.94454 4.23495 3.94454zm.55659-1.59717c-1.57298 0-2.75876-1.089-2.75876-2.51678 0-1.45198 1.47617-2.44417 3.60576-2.44417 1.08899 0 2.22637.2178 3.21856.605v1.86337c0 .2904-.16939.65339-.45979.94379-.67759.94379-2.10539 1.54879-3.60577 1.54879z" />
    <path d="m430.71684 444.67335c-.242.14516-1.01639.53238-1.86339.53238-.75019 0-1.37938-.41139-1.42778-1.33098v-7.84072h2.83137v-1.66978h-2.83137v-4.21075h-2.12957v4.21075h-1.71818v1.66978h1.71818v8.49411c0 1.81499 1.30679 2.63778 2.85556 2.63778 1.35519 0 2.54098-.55659 3.07337-.79859z" />
    <path d="m435.32839 446.99653v-12.63228h-2.12958v12.63228zm0-15.00385v-2.66198h-2.12958v2.66198z" />
    <path d="m437.92912 440.65619c0 3.55735 2.63776 6.58232 6.43713 6.58232 2.54097 0 4.64636-1.33097 5.39655-3.17016l-2.08118-.62919c-.38721 1.06478-1.88758 1.96018-3.36376 1.96018-2.29898 0-4.21077-2.08118-4.21077-4.74315 0-2.68617 1.83918-4.67055 4.18655-4.67055 1.4036 0 2.63778.70179 3.29117 1.88758l2.08118-.65339c-.91958-1.86339-2.83137-3.07337-5.32393-3.07337-3.84777 0-6.41294 2.95236-6.41294 6.50973z" />
    <path d="m455.44219 447.23851c1.96017 0 3.77516-.82278 4.91254-2.32316l.0483.89538c.0968.70179.60499 1.28259 1.45199 1.28259.3146 0 .58079-.0242 1.01639-.0968v-1.83919c-.484-.0242-.67759-.24199-.67759-.77439v-5.15454c0-3.19438-1.98438-5.08195-5.27555-5.08195-1.66978 0-3.29117.55659-4.91256 1.64557l.7018 1.3794c1.37939-.96799 2.71037-1.47619 4.01715-1.47619 2.10539 0 3.33957 1.25839 3.33957 3.31537v1.01638c-.96799-.38719-2.29898-.62919-3.53316-.62919-3.12177 0-5.32394 1.59719-5.32394 3.89617 0 2.22636 1.83917 3.94454 4.23496 3.94454zm.55658-1.59717c-1.57297 0-2.75877-1.089-2.75877-2.51678 0-1.45198 1.47618-2.44417 3.60577-2.44417 1.08899 0 2.22637.2178 3.21856.605v1.86337c0 .2904-.16939.65339-.45979.94379-.67759.94379-2.10537 1.54879-3.60577 1.54879z" />
    <path d="m484.66791 439.4462c0-3.02497-.9196-5.29974-3.82356-5.29974-2.05699 0-3.70258 1.06479-4.81576 3.07337-.2904-1.79079-1.57299-3.07337-3.67836-3.07337-2.05698 0-3.77516 1.06479-4.79155 2.92816v-2.71037h-1.93598v12.63228h2.12959v-7.62293c.58078-1.98438 2.10537-3.31537 3.79935-3.31537 1.66978 0 2.51677 1.1858 2.51677 3.87197v7.06633h2.12959v-7.59873c.58078-1.96018 2.08117-3.33957 3.79935-3.33957 1.66979 0 2.54098 1.23419 2.54098 3.87197v7.06633h2.12958z" />
    <path d="m493.56926 447.23851c2.54098 0 4.69476-1.33097 5.51755-3.19436l-1.83918-.5082c-.53239 1.25839-2.05698 2.10539-3.60576 2.10539-2.20218 0-4.06555-1.74238-4.25916-4.23496h10.47849c.0242-.14516.0483-.48399.0483-.82279 0-3.38796-2.49257-6.43713-6.31614-6.43713-3.79935 0-6.46133 2.97656-6.46133 6.53393s2.63778 6.55812 6.43713 6.55812zm-4.23494-7.40512c.16939-2.39577 2.00858-4.08976 4.25914-4.08976 2.25058 0 4.08977 1.66979 4.30756 4.08976z" />
    <path d="m513.26294 439.4462c0-3.04917-.84699-5.29974-3.77515-5.29974-2.22639 0-4.25916 1.16158-5.25136 2.92816v-2.71037h-1.93598v12.63228h2.12959v-7.62293c.58078-1.91178 2.46837-3.31537 4.21075-3.31537 1.66978 0 2.49257 1.1858 2.49257 3.87197v7.06633h2.12958z" />
    <path d="m522.45848 444.67335c-.24199.14516-1.01639.53238-1.86338.53238-.75019 0-1.37938-.41139-1.42778-1.33098v-7.84072h2.83137v-1.66978h-2.83137v-4.21075h-2.12959v4.21075h-1.71818v1.66978h1.71818v8.49411c0 1.81499 1.30679 2.63778 2.85558 2.63778 1.35519 0 2.54097-.55659 3.07337-.79859z" />
    <path d="m530.34156 447.23851c2.54098 0 4.69476-1.33097 5.51754-3.19436l-1.83917-.5082c-.5324 1.25839-2.05698 2.10539-3.60577 2.10539-2.20217 0-4.06556-1.74238-4.25915-4.23496h10.47849c.0242-.14516.0483-.48399.0483-.82279 0-3.38796-2.49258-6.43713-6.31614-6.43713-3.79935 0-6.46133 2.97656-6.46133 6.53393s2.63778 6.55812 6.43714 6.55812zm-4.23496-7.40512c.16941-2.39577 2.00858-4.08976 4.25916-4.08976s4.08976 1.66979 4.30756 4.08976z" />
    <path d="m140.86117 517.79517v-7.80489h7.82944v-1.84078h-7.82944v-5.81685h9.30206v-1.96349h-11.51099v17.42601z" />
    <path d="m154.54045 518.04061c1.98804 0 3.82882-.83448 4.98237-2.35619l.0491.90812c.0982.71177.61359 1.30081 1.47262 1.30081.31907 0 .58905-.0245 1.03083-.0982v-1.86531c-.49087-.0245-.68722-.24544-.68722-.78541v-5.2278c0-3.23977-2.01258-5.15417-5.35053-5.15417-1.69351 0-3.33794.5645-4.98237 1.66896l.71177 1.399c1.39899-.98175 2.7489-1.49716 4.07426-1.49716 2.1353 0 3.38703 1.27627 3.38703 3.36247v1.03085c-.98175-.39271-2.33166-.63815-3.58338-.63815-3.16614 0-5.39962 1.61989-5.39962 3.95154 0 2.25802 1.86532 4.00062 4.29515 4.00062zm.5645-1.61989c-1.59534 0-2.79798-1.10445-2.79798-2.55254 0-1.47262 1.49717-2.4789 3.65701-2.4789 1.10447 0 2.25802.22088 3.26431.61359v1.88986c0 .29453-.1718.66268-.46633.95721-.68722.95719-2.1353 1.57078-3.65701 1.57078z" />
    <path d="m164.91476 515.26718c0 1.69351 1.03084 2.69981 2.69981 2.69981.76085 0 1.86532-.22091 2.57709-.51542l-.34362-1.74261c-.41724.17181-.9572.29452-1.32535.29452-.90812 0-1.44808-.5645-1.44808-1.52171v-14.60349h-2.15985z" />
    <path d="m177.97584 515.43898c-.24544.14726-1.03083.53997-1.88986.53997-.76086 0-1.39899-.41724-1.44808-1.34991v-7.95216h2.87161v-1.69351h-2.87161v-4.27061h-2.15985v4.27061h-1.7426v1.69351h1.7426v8.61484c0 1.84077 1.32536 2.67527 2.89616 2.67527 1.37445 0 2.57709-.56451 3.11705-.80995z" />
    <path d="m183.78196 518.04061c1.98804 0 3.82881-.83448 4.98237-2.35619l.0491.90812c.0982.71177.61359 1.30081 1.47262 1.30081.31907 0 .58905-.0245 1.03083-.0982v-1.86531c-.49087-.0245-.68722-.24544-.68722-.78541v-5.2278c0-3.23977-2.01258-5.15417-5.35053-5.15417-1.69351 0-3.33794.5645-4.98236 1.66896l.71176 1.399c1.39899-.98175 2.7489-1.49716 4.07426-1.49716 2.1353 0 3.38703 1.27627 3.38703 3.36247v1.03085c-.98175-.39271-2.33165-.63815-3.58338-.63815-3.16614 0-5.39962 1.61989-5.39962 3.95154 0 2.25802 1.86532 4.00062 4.29515 4.00062zm.5645-1.61989c-1.59534 0-2.79798-1.10445-2.79798-2.55254 0-1.47262 1.49717-2.4789 3.65701-2.4789 1.10447 0 2.25802.22088 3.26431.61359v1.88986c0 .29453-.1718.66268-.46633.95721-.68722.95719-2.1353 1.57078-3.65701 1.57078z" />
    <path d="m205.22548 510.13754c0-3.09251-.85904-5.37506-3.82882-5.37506-2.25802 0-4.31969 1.17809-5.32598 2.96978v-2.74889h-1.9635v12.8118h2.15985v-7.73125c.58905-1.93895 2.50346-3.36249 4.2706-3.36249 1.69351 0 2.52801 1.20263 2.52801 3.92699v7.16675h2.15984z" />
    <path d="m213.86103 518.04061c1.84077 0 3.68155-1.00629 4.68783-2.65072v1.07992c0 .73632.73632 1.42354 1.59535 1.42354.26998 0 .49087-.0245.95719-.0982v-1.86531c-.49086-.0245-.68721-.24544-.68721-.78541v-15.26617h-2.15984v7.65763c-.93267-1.54625-2.62618-2.77343-4.68785-2.77343-3.38704 0-5.81685 3.01887-5.81685 6.65133 0 3.53429 2.55254 6.6268 6.11138 6.6268zm.51542-1.86531c-2.47892 0-4.39334-2.15986-4.39334-4.73694 0-2.45436 1.66898-4.81057 4.19698-4.81057 1.61989 0 3.46067 1.32536 4.07426 2.99434v3.68155c-.31908 1.59535-2.33166 2.87162-3.8779 2.87162z" />
    <path d="m229.61577 518.04061c3.85336 0 6.47954-3.06796 6.47954-6.6268 0-3.58337-2.65072-6.65133-6.47954-6.65133-3.80427 0-6.45499 3.06796-6.45499 6.65133 0 3.55884 2.60163 6.6268 6.45499 6.6268zm-4.24605-6.60225c0-2.67527 1.9144-4.81057 4.24605-4.81057 2.3562 0 4.27061 2.11077 4.27061 4.76149 0 2.67525-1.91441 4.78602-4.27061 4.78602-2.35619 0-4.24605-2.06168-4.24605-4.73694z" />
    <path d="m251.86501 518.04061c3.38702 0 5.74323-2.99433 5.74323-6.65133 0-3.48522-2.55256-6.6268-6.06229-6.6268-1.93896 0-3.65702 1.05537-4.66331 2.62617v-2.40528h-1.9144v18.03961h2.15984v-7.7558c.9572 1.59533 2.62618 2.77343 4.73693 2.77343zm-.66268-1.86531c-1.7426 0-3.36249-1.32536-4.07425-3.01889v-3.657c.31906-1.5708 2.33165-2.87162 3.8779-2.87162 2.47892 0 4.39332 2.18439 4.39332 4.76149 0 2.42981-1.66896 4.78602-4.19697 4.78602z" />
    <path d="m263.54895 518.04061c1.98804 0 3.82883-.83448 4.98238-2.35619l.0491.90812c.0981.71177.61359 1.30081 1.47262 1.30081.31907 0 .58906-.0245 1.03084-.0982v-1.86531c-.49087-.0245-.68722-.24544-.68722-.78541v-5.2278c0-3.23977-2.01259-5.15417-5.35053-5.15417-1.69351 0-3.33795.5645-4.98237 1.66896l.71177 1.399c1.39898-.98175 2.74889-1.49716 4.07425-1.49716 2.1353 0 3.38702 1.27627 3.38702 3.36247v1.03085c-.98174-.39271-2.33164-.63815-3.58337-.63815-3.16614 0-5.39962 1.61989-5.39962 3.95154 0 2.25802 1.86533 4.00062 4.29515 4.00062zm.56452-1.61989c-1.59535 0-2.79798-1.10445-2.79798-2.55254 0-1.47262 1.49716-2.4789 3.657-2.4789 1.10447 0 2.25803.22088 3.26431.61359v1.88986c0 .29453-.1718.66268-.46633.95721-.68722.95719-2.1353 1.57078-3.657 1.57078z" />
    <path d="m280.64824 504.90974c-.1718-.0245-.3927-.0245-.71176-.0245-1.61989.12268-3.16614 1.30082-4.04971 3.06795v-2.96978h-2.01259v12.81181h2.15986v-7.90307c.68721-1.86532 2.45437-2.96979 4.6142-3.01888z" />
    <path d="m286.0793 518.04061c1.98804 0 3.82882-.83448 4.98238-2.35619l.0491.90812c.0982.71177.61359 1.30081 1.47262 1.30081.31907 0 .58904-.0245 1.03083-.0982v-1.86531c-.49088-.0245-.68723-.24544-.68723-.78541v-5.2278c0-3.23977-2.01257-5.15417-5.35052-5.15417-1.69352 0-3.33794.5645-4.98236 1.66896l.71176 1.399c1.39899-.98175 2.7489-1.49716 4.07426-1.49716 2.13529 0 3.38702 1.27627 3.38702 3.36247v1.03085c-.98174-.39271-2.33165-.63815-3.58337-.63815-3.16614 0-5.39962 1.61989-5.39962 3.95154 0 2.25802 1.86532 4.00062 4.29515 4.00062zm.56451-1.61989c-1.59534 0-2.79799-1.10445-2.79799-2.55254 0-1.47262 1.49718-2.4789 3.65702-2.4789 1.10447 0 2.25801.22088 3.26431.61359v1.88986c0 .29453-.1718.66268-.46633.95721-.68723.95719-2.1353 1.57078-3.65701 1.57078z" />
    <path d="m305.92518 518.04061c1.98804 0 3.82882-.83448 4.98238-2.35619l.0491.90812c.0981.71177.61361 1.30081 1.47262 1.30081.31908 0 .58906-.0245 1.03085-.0982v-1.86531c-.49088-.0245-.68723-.24544-.68723-.78541v-5.2278c0-3.23977-2.01258-5.15417-5.35053-5.15417-1.69351 0-3.33793.5645-4.98237 1.66896l.71177 1.399c1.39899-.98175 2.74889-1.49716 4.07425-1.49716 2.1353 0 3.38704 1.27627 3.38704 3.36247v1.03085c-.98176-.39271-2.33166-.63815-3.58339-.63815-3.16614 0-5.3996 1.61989-5.3996 3.95154 0 2.25802 1.86531 4.00062 4.29514 4.00062zm.56451-1.61989c-1.59534 0-2.79799-1.10445-2.79799-2.55254 0-1.47262 1.49716-2.4789 3.65702-2.4789 1.10445 0 2.25801.22088 3.26431.61359v1.88986c0 .29453-.17182.66268-.46633.95721-.68723.95719-2.1353 1.57078-3.65701 1.57078z" />
    <g transform="translate(6.231776)">
      <path d="m321.5273 518.04061c1.84078 0 3.68155-1.00629 4.68785-2.65072v1.07992c0 .73632.7363 1.42354 1.59533 1.42354.26999 0 .49088-.0245.95721-.0982v-1.86531c-.49088-.0245-.68722-.24544-.68722-.78541v-15.26617h-2.15985v7.65763c-.93266-1.54625-2.62617-2.77343-4.68785-2.77343-3.38702 0-5.81685 3.01887-5.81685 6.65133 0 3.53429 2.55254 6.6268 6.11138 6.6268zm.51542-1.86531c-2.47891 0-4.39332-2.15986-4.39332-4.73694 0-2.45436 1.66897-4.81057 4.19696-4.81057 1.61989 0 3.46067 1.32536 4.07426 2.99434v3.68155c-.31907 1.59535-2.33164 2.87162-3.8779 2.87162z" />
      <path d="m334.97496 518.04061c1.98804 0 3.82881-.83448 4.98237-2.35619l.0491.90812c.0982.71177.6136 1.30081 1.47261 1.30081.31908 0 .58906-.0245 1.03085-.0982v-1.86531c-.49088-.0245-.68723-.24544-.68723-.78541v-5.2278c0-3.23977-2.01258-5.15417-5.35053-5.15417-1.69351 0-3.33793.5645-4.98236 1.66896l.71177 1.399c1.39898-.98175 2.74888-1.49716 4.07424-1.49716 2.1353 0 3.38704 1.27627 3.38704 3.36247v1.03085c-.98175-.39271-2.33166-.63815-3.58338-.63815-3.16615 0-5.39961 1.61989-5.39961 3.95154 0 2.25802 1.86531 4.00062 4.29514 4.00062zm.5645-1.61989c-1.59534 0-2.79798-1.10445-2.79798-2.55254 0-1.47262 1.49716-2.4789 3.65701-2.4789 1.10446 0 2.25802.22088 3.26431.61359v1.88986c0 .29453-.17181.66268-.46633.95721-.68723.95719-2.1353 1.57078-3.65701 1.57078z" />
      <path d="m351.31568 515.43898c-.24543.14726-1.03083.53997-1.88986.53997-.76085 0-1.39898-.41724-1.44807-1.34991v-7.95216h2.87161v-1.69351h-2.87161v-4.27061h-2.15986v4.27061h-1.74259v1.69351h1.74259v8.61484c0 1.84077 1.32536 2.67527 2.89616 2.67527 1.37445 0 2.5771-.56451 3.11705-.80995z" />
      <path d="m357.12178 518.04061c1.98804 0 3.82882-.83448 4.98238-2.35619l.0491.90812c.0981.71177.61359 1.30081 1.47263 1.30081.31906 0 .58904-.0245 1.03083-.0982v-1.86531c-.49088-.0245-.68723-.24544-.68723-.78541v-5.2278c0-3.23977-2.01258-5.15417-5.35053-5.15417-1.69351 0-3.33794.5645-4.98236 1.66896l.71177 1.399c1.39898-.98175 2.74889-1.49716 4.07425-1.49716 2.13529 0 3.38703 1.27627 3.38703 3.36247v1.03085c-.98175-.39271-2.33166-.63815-3.58338-.63815-3.16613 0-5.39961 1.61989-5.39961 3.95154 0 2.25802 1.86531 4.00062 4.29514 4.00062zm.56451-1.61989c-1.59534 0-2.79798-1.10445-2.79798-2.55254 0-1.47262 1.49717-2.4789 3.65701-2.4789 1.10447 0 2.25802.22088 3.26431.61359v1.88986c0 .29453-.1718.66268-.46633.95721-.68723.95719-2.1353 1.57078-3.65701 1.57078z" />
      <path d="m373.72791 515.26718c0 1.69351 1.03083 2.69981 2.6998 2.69981.76086 0 1.86533-.22091 2.5771-.51542l-.34362-1.74261c-.41724.17181-.95721.29452-1.32536.29452-.90812 0-1.44808-.5645-1.44808-1.52171v-14.60349h-2.15984z" />
      <path d="m382.83744 517.79517v-12.8118h-2.15985v12.8118zm0-15.21708v-2.69981h-2.15985v2.69981z" />
      <path d="m405.65005 510.13754c0-3.06796-.93267-5.37506-3.8779-5.37506-2.08622 0-3.75519 1.07992-4.8842 3.11705-.29453-1.81624-1.59534-3.11705-3.73064-3.11705-2.08621 0-3.82881 1.07992-4.85966 2.96978v-2.74889h-1.96349v12.8118h2.15984v-7.73125c.58906-2.01259 2.1353-3.36249 3.85337-3.36249 1.69351 0 2.55254 1.20263 2.55254 3.92699v7.16675h2.15984v-7.70672c.58906-1.98804 2.11077-3.38702 3.85337-3.38702 1.69351 0 2.57708 1.25172 2.57708 3.92699v7.16675h2.15985z" />
      <path d="m411.16816 517.79517v-12.8118h-2.15985v12.8118zm0-15.21708v-2.69981h-2.15985v2.69981z" />
      <path d="m420.77626 515.43898c-.24544.14726-1.03085.53997-1.88986.53997-.76086 0-1.399-.41724-1.44809-1.34991v-7.95216h2.87161v-1.69351h-2.87161v-4.27061h-2.15984v4.27061h-1.7426v1.69351h1.7426v8.61484c0 1.84077 1.32536 2.67527 2.89616 2.67527 1.37445 0 2.57708-.56451 3.11705-.80995z" />
      <path d="m428.77137 518.04061c2.57708 0 4.76147-1.3499 5.59596-3.23976l-1.86533-.51543c-.53996 1.27629-2.08621 2.1353-3.65701 2.1353-2.23348 0-4.12334-1.76713-4.31968-4.29514h10.62741c.0245-.14726.0491-.49086.0491-.83448 0-3.43613-2.52801-6.52862-6.40591-6.52862-3.85335 0-6.55316 3.01887-6.55316 6.6268 0 3.60791 2.67525 6.65133 6.52862 6.65133zm-4.29515-7.51037c.1718-2.42983 2.03713-4.14787 4.31968-4.14787 2.28257 0 4.1479 1.69351 4.36878 4.14787z" />
    </g>
    <path d="m143.18355 645.66598v-17.18183h-2.17797v17.18183z" />
    <path d="m157.91553 638.11565c0-3.04916-.84699-5.29974-3.77516-5.29974-2.22638 0-4.25916 1.16159-5.25135 2.92817v-2.71037h-1.93598v12.63227h2.12958v-7.62292c.58079-1.91179 2.46837-3.31537 4.21076-3.31537 1.66978 0 2.49257 1.18579 2.49257 3.87197v7.06632h2.12958z" />
    <path d="m163.35669 645.66598v-12.63227h-2.12958v12.63227zm0-15.00385v-2.66197h-2.12958v2.66197z" />
    <path d="m165.95741 639.32565c0 3.55735 2.63777 6.58232 6.43713 6.58232 2.54098 0 4.64636-1.33099 5.39655-3.17016l-2.08118-.6292c-.3872 1.06479-1.88758 1.96019-3.36377 1.96019-2.29897 0-4.21075-2.08118-4.21075-4.74315 0-2.68618 1.83918-4.67056 4.18655-4.67056 1.40359 0 2.63778.7018 3.29117 1.88758l2.08118-.6534c-.91959-1.86337-2.83137-3.07336-5.32395-3.07336-3.84776 0-6.41293 2.95237-6.41293 6.50974z" />
    <path d="m182.35728 645.66598v-12.63227h-2.12958v12.63227zm0-15.00385v-2.66197h-2.12958v2.66197z" />
    <path d="m189.04775 645.90797c1.96018 0 3.77516-.82278 4.91255-2.32318l.0484.8954c.0968.70179.60499 1.28259 1.45198 1.28259.3146 0 .5808-.0242 1.01639-.0968v-1.83918c-.48399-.0243-.67759-.24201-.67759-.77439v-5.15456c0-3.19436-1.98438-5.08194-5.27554-5.08194-1.66979 0-3.29117.5566-4.91255 1.64558l.70179 1.37938c1.37938-.96799 2.71037-1.47617 4.01716-1.47617 2.10538 0 3.33956 1.25839 3.33956 3.31536v1.01639c-.96799-.38719-2.29897-.62919-3.53316-.62919-3.12177 0-5.32395 1.59718-5.32395 3.89616 0 2.22637 1.83919 3.94455 4.23496 3.94455zm.5566-1.59717c-1.57299 0-2.75877-1.089-2.75877-2.51678 0-1.45198 1.47618-2.44417 3.60576-2.44417 1.08899 0 2.22638.21778 3.21857.60499v1.86338c0 .29039-.1694.65339-.4598.94379-.67759.94379-2.10538 1.54879-3.60576 1.54879z" />
    <path d="m205.90742 632.96111c-.16941-.0242-.3872-.0242-.70179-.0242-1.59719.12107-3.12177 1.28259-3.99296 3.02497v-2.92818h-1.98439v12.63228h2.12958v-7.79233c.67759-1.83918 2.41998-2.92816 4.54956-2.97656z" />
    <path d="m212.7499 639.32565c0 3.55735 2.63778 6.58232 6.43713 6.58232 2.54097 0 4.64636-1.33099 5.39655-3.17016l-2.08118-.6292c-.38719 1.06479-1.88758 1.96019-3.36376 1.96019-2.29898 0-4.21077-2.08118-4.21077-4.74315 0-2.68618 1.83919-4.67056 4.18657-4.67056 1.40358 0 2.63777.7018 3.29115 1.88758l2.08119-.6534c-.91959-1.86337-2.83138-3.07336-5.32395-3.07336-3.84776 0-6.41293 2.95237-6.41293 6.50974z" />
    <path d="m232.39593 645.90797c3.79936 0 6.38874-3.02497 6.38874-6.53393 0-3.53317-2.61358-6.55813-6.38874-6.55813-3.75095 0-6.36453 3.02496-6.36453 6.55813 0 3.50896 2.56518 6.53393 6.36453 6.53393zm-4.18656-6.50973c0-2.63777 1.88759-4.74315 4.18656-4.74315 2.32318 0 4.21075 2.08118 4.21075 4.69476 0 2.63777-1.88757 4.71895-4.21075 4.71895-2.32317 0-4.18656-2.03278-4.18656-4.67056z" />
    <path d="m260.43399 638.11565c0-3.02496-.91959-5.29974-3.82355-5.29974-2.05698 0-3.70257 1.0648-4.81576 3.07336-.29039-1.79078-1.57298-3.07336-3.67835-3.07336-2.05699 0-3.77517 1.0648-4.79156 2.92817v-2.71037h-1.93599v12.63227h2.12959v-7.62292c.5808-1.98438 2.10538-3.31537 3.79936-3.31537 1.66978 0 2.51678 1.18579 2.51678 3.87197v7.06632h2.12957v-7.59872c.5808-1.96019 2.08118-3.33957 3.79936-3.33957 1.66978 0 2.54098 1.23419 2.54098 3.87197v7.06632h2.12957z" />
    <path d="m275.40721 645.90797c3.79935 0 6.38873-3.02497 6.38873-6.53393 0-3.53317-2.61357-6.55813-6.38873-6.55813-3.75096 0-6.36454 3.02496-6.36454 6.55813 0 3.50896 2.56518 6.53393 6.36454 6.53393zm-4.18655-6.50973c0-2.63777 1.88757-4.74315 4.18655-4.74315 2.32318 0 4.21076 2.08118 4.21076 4.69476 0 2.63777-1.88758 4.71895-4.21076 4.71895s-4.18655-2.03278-4.18655-4.67056z" />
    <path d="m289.69754 639.32565c0 3.55735 2.63778 6.58232 6.43715 6.58232 2.54096 0 4.64634-1.33099 5.39654-3.17016l-2.08119-.6292c-.38719 1.06479-1.88757 1.96019-3.36376 1.96019-2.29897 0-4.21075-2.08118-4.21075-4.74315 0-2.68618 1.83917-4.67056 4.18655-4.67056 1.40358 0 2.63777.7018 3.29117 1.88758l2.08117-.6534c-.91958-1.86337-2.83136-3.07336-5.32395-3.07336-3.84775 0-6.41293 2.95237-6.41293 6.50974z" />
    <path d="m309.34357 645.90797c3.79936 0 6.38874-3.02497 6.38874-6.53393 0-3.53317-2.61358-6.55813-6.38874-6.55813-3.75095 0-6.36453 3.02496-6.36453 6.55813 0 3.50896 2.56518 6.53393 6.36453 6.53393zm-4.18655-6.50973c0-2.63777 1.88758-4.74315 4.18655-4.74315 2.32318 0 4.21077 2.08118 4.21077 4.69476 0 2.63777-1.88759 4.71895-4.21077 4.71895-2.32317 0-4.18655-2.03278-4.18655-4.67056z" />
    <path d="m337.38163 638.11565c0-3.02496-.91958-5.29974-3.82355-5.29974-2.05698 0-3.70257 1.0648-4.81575 3.07336-.2904-1.79078-1.57299-3.07336-3.67836-3.07336-2.05698 0-3.77517 1.0648-4.79156 2.92817v-2.71037h-1.93597v12.63227h2.12957v-7.62292c.5808-1.98438 2.10537-3.31537 3.79936-3.31537 1.66978 0 2.51678 1.18579 2.51678 3.87197v7.06632h2.12957v-7.59872c.5808-1.96019 2.08118-3.33957 3.79936-3.33957 1.66978 0 2.54098 1.23419 2.54098 3.87197v7.06632h2.12957z" />
    <path d="m347.49297 645.90797c3.33956 0 5.66274-2.95236 5.66274-6.55812 0-3.43637-2.51678-6.53394-5.97734-6.53394-1.91179 0-3.60577 1.04058-4.59796 2.58937v-2.37157h-1.88757v17.78682h2.12957v-7.64713c.9438 1.57299 2.58938 2.73457 4.67056 2.73457zm-.6534-1.83917c-1.71818 0-3.31536-1.30679-4.01716-2.97657v-3.60577c.3146-1.54878 2.29898-2.83137 3.82356-2.83137 2.44418 0 4.33176 2.15378 4.33176 4.69476 0 2.39577-1.64559 4.71895-4.13816 4.71895z" />
    <path d="m359.66658 645.90797c2.17799 0 4.13817-1.06479 5.25136-2.95236l.0483 1.47618c.0242.75019.6776 1.30679 1.50038 1.30679.2662 0 .48401 0 .96799-.0726v-1.83919c-.48398-.0242-.67759-.242-.67759-.77439v-10.0187h-2.12957v7.91333c-.75019 1.93597-2.41997 3.12176-4.16235 3.12176-1.79079 0-2.68618-1.28259-2.68618-3.87197v-7.16312h-2.12958v7.57453c0 3.48476 1.37938 5.29974 4.01716 5.29974z" />
    <path d="m376.35384 643.34281c-.242.14516-1.01639.53238-1.86339.53238-.75019 0-1.37938-.41139-1.42778-1.33098v-7.84072h2.83136v-1.66978h-2.83136v-4.21077h-2.12957v4.21077h-1.71818v1.66978h1.71818v8.49411c0 1.81499 1.30678 2.63777 2.85556 2.63777 1.35519 0 2.54098-.55659 3.07337-.79858z" />
    <path d="m382.07858 645.90797c1.96019 0 3.77516-.82278 4.91255-2.32318l.0483.8954c.0968.70179.605 1.28259 1.452 1.28259.3146 0 .5808-.0242 1.01639-.0968v-1.83918c-.48401-.0243-.67759-.24201-.67759-.77439v-5.15456c0-3.19436-1.98439-5.08194-5.27555-5.08194-1.66979 0-3.29117.5566-4.91256 1.64558l.70181 1.37938c1.37938-.96799 2.71037-1.47617 4.01716-1.47617 2.10537 0 3.33955 1.25839 3.33955 3.31536v1.01639c-.96798-.38719-2.29897-.62919-3.53316-.62919-3.12176 0-5.32395 1.59718-5.32395 3.89616 0 2.22637 1.83919 3.94455 4.23497 3.94455zm.55659-1.59717c-1.57297 0-2.75877-1.089-2.75877-2.51678 0-1.45198 1.47619-2.44417 3.60577-2.44417 1.08898 0 2.22638.21778 3.21856.60499v1.86338c0 .29039-.16939.65339-.45979.94379-.6776.94379-2.10538 1.54879-3.60577 1.54879z" />
    <path d="m397.46206 645.90797c1.81499 0 3.62997-.99219 4.62216-2.61356v1.06479c0 .72599.72599 1.40358 1.57299 1.40358.2662 0 .48399-.0242.94379-.0968v-1.83918c-.484-.0243-.67759-.24201-.67759-.77439v-15.05225h-2.12959v7.55032c-.91958-1.52458-2.58936-2.73457-4.62214-2.73457-3.33957 0-5.73536 2.97657-5.73536 6.55814 0 3.48475 2.51679 6.53392 6.02574 6.53392zm.5082-1.83917c-2.44417 0-4.33175-2.12959-4.33175-4.67056 0-2.41997 1.64558-4.74315 4.13815-4.74315 1.59719 0 3.41216 1.30679 4.01716 2.95238v3.62995c-.3146 1.57299-2.29898 2.83138-3.82356 2.83138z" />
    <path d="m412.99604 645.90797c3.79935 0 6.38873-3.02497 6.38873-6.53393 0-3.53317-2.61358-6.55813-6.38873-6.55813-3.75096 0-6.36454 3.02496-6.36454 6.55813 0 3.50896 2.56518 6.53393 6.36454 6.53393zm-4.18657-6.50973c0-2.63777 1.88759-4.74315 4.18657-4.74315 2.32317 0 4.21075 2.08118 4.21075 4.69476 0 2.63777-1.88758 4.71895-4.21075 4.71895-2.32318 0-4.18657-2.03278-4.18657-4.67056z" />
    <path d="m428.66802 632.96111c-.16941-.0242-.38721-.0242-.70181-.0242-1.59717.12107-3.12176 1.28259-3.99294 3.02497v-2.92818h-1.98439v12.63228h2.12958v-7.79233c.67759-1.83918 2.41997-2.92816 4.54956-2.97656z" />
    <path d="m153.39585 754.84041h-14.03586v1.93598h5.92894v15.24585h2.17798v-15.24585h5.92894z" />
    <path d="m158.40406 772.26423c2.54098 0 4.69475-1.33099 5.51755-3.19436l-1.83919-.5082c-.53239 1.25839-2.05697 2.10539-3.60576 2.10539-2.20218 0-4.06556-1.7424-4.25915-4.23497h10.47849c.0242-.14516.0484-.48399.0484-.8228 0-3.38796-2.49258-6.43713-6.31614-6.43713-3.79936 0-6.46133 2.97657-6.46133 6.53394 0 3.55736 2.63777 6.55813 6.43713 6.55813zm-4.23495-7.40513c.16939-2.39577 2.00857-4.08975 4.25915-4.08975s4.08976 1.66978 4.30756 4.08975z" />
    <path d="m186.18046 764.47191c0-3.02497-.91959-5.29975-3.82356-5.29975-2.05698 0-3.70256 1.0648-4.81575 3.07337-.2904-1.79078-1.57298-3.07337-3.67836-3.07337-2.05698 0-3.77516 1.0648-4.79155 2.92818v-2.71038h-1.93598v12.63228h2.12957v-7.62293c.5808-1.98438 2.10538-3.31536 3.79937-3.31536 1.66978 0 2.51677 1.18579 2.51677 3.87196v7.06633h2.12958v-7.59873c.58079-1.96018 2.08118-3.33956 3.79936-3.33956 1.66978 0 2.54097 1.23419 2.54097 3.87196v7.06633h2.12958z" />
    <path d="m192.73443 772.26423c1.96018 0 3.77516-.82279 4.91255-2.32318l.0484.8954c.0968.70179.60499 1.28259 1.45199 1.28259.3146 0 .58079-.0243 1.01639-.0968v-1.83919c-.484-.0242-.67759-.242-.67759-.77438v-5.15456c0-3.19436-1.98439-5.08195-5.27555-5.08195-1.66979 0-3.29117.5566-4.91255 1.64559l.70179 1.37938c1.37939-.96799 2.71037-1.47618 4.01716-1.47618 2.10538 0 3.33956 1.25839 3.33956 3.31537v1.01639c-.96799-.38719-2.29897-.6292-3.53316-.6292-3.12177 0-5.32394 1.59719-5.32394 3.89617 0 2.22637 1.83918 3.94455 4.23495 3.94455zm.5566-1.59717c-1.57299 0-2.75877-1.089-2.75877-2.51679 0-1.45198 1.47618-2.44417 3.60576-2.44417 1.08899 0 2.22638.21779 3.21857.605v1.86337c0 .2904-.1694.6534-.4598.9438-.67759.94379-2.10538 1.54879-3.60576 1.54879z" />
    <path d="m214.64958 772.26423c2.54097 0 4.69475-1.33099 5.51754-3.19436l-1.83918-.5082c-.5324 1.25839-2.05697 2.10539-3.60576 2.10539-2.20219 0-4.06556-1.7424-4.25916-4.23497h10.4785c.0242-.14516.0483-.48399.0483-.8228 0-3.38796-2.49258-6.43713-6.31614-6.43713-3.79936 0-6.46133 2.97657-6.46133 6.53394 0 3.55736 2.63778 6.55813 6.43713 6.55813zm-4.23496-7.40513c.1694-2.39577 2.00858-4.08975 4.25916-4.08975s4.08975 1.66978 4.30756 4.08975z" />
    <path d="m227.80933 772.26423c3.04917 0 5.00934-1.50038 5.00934-3.84776 0-2.15378-1.59717-2.83138-4.96094-3.62996-2.15378-.5324-2.97657-.79859-2.97657-1.98438 0-1.45198 1.23419-2.08118 2.78297-2.08118 1.37938 0 2.75877.45979 3.82357 1.40358l.96797-1.28258c-1.13738-.9922-2.85556-1.66979-4.74314-1.66979-2.68618 0-4.83995 1.37939-4.83995 3.92037 0 1.98438 1.28259 2.56518 4.33176 3.31536 2.41997.5808 3.55735.9438 3.55735 2.20217 0 1.30679-1.18578 2.08119-3.00077 2.08119-1.62137 0-3.09756-.58079-4.57374-1.69398l-.9196 1.42778c1.40359 1.18578 3.53318 1.83918 5.54175 1.83918z" />
    <path d="m234.49186 765.6819c0 3.55736 2.63776 6.58233 6.43713 6.58233 2.54097 0 4.64636-1.33099 5.39655-3.17016l-2.08118-.6292c-.38721 1.06479-1.88759 1.96018-3.36376 1.96018-2.29898 0-4.21077-2.08117-4.21077-4.74315 0-2.68617 1.83919-4.67055 4.18657-4.67055 1.40358 0 2.63776.70179 3.29115 1.88757l2.08119-.65339c-.91959-1.86337-2.83138-3.07337-5.32395-3.07337-3.84776 0-6.41293 2.95237-6.41293 6.50974z" />
    <path d="m252.65832 772.26423c2.17797 0 4.13815-1.06479 5.25134-2.95236l.0483 1.47618c.0242.75019.67759 1.30679 1.50039 1.30679.2662 0 .48399 0 .96799-.0726v-1.83919c-.484-.0243-.67759-.242-.67759-.77439v-10.0187h-2.12959v7.91332c-.75019 1.93597-2.41997 3.12177-4.16235 3.12177-1.79078 0-2.68617-1.28259-2.68617-3.87197v-7.16312h-2.12958v7.57453c0 3.48476 1.37939 5.29973 4.01716 5.29973z" />
    <path d="m269.99894 759.31737c-.16939-.0242-.38719-.0242-.70179-.0242-1.59717.12106-3.12177 1.28259-3.99296 3.02496v-2.92817h-1.98438v12.63228h2.12958v-7.79233c.6776-1.83918 2.41998-2.92816 4.54955-2.97656z" />
    <path d="m277.34509 772.26423c3.79935 0 6.38873-3.02497 6.38873-6.53393 0-3.53317-2.61358-6.55814-6.38873-6.55814-3.75096 0-6.36454 3.02497-6.36454 6.55814 0 3.50896 2.56518 6.53393 6.36454 6.53393zm-4.18657-6.50973c0-2.63777 1.88759-4.74315 4.18657-4.74315 2.32317 0 4.21075 2.08118 4.21075 4.69475 0 2.63778-1.88758 4.71895-4.21075 4.71895-2.32318 0-4.18657-2.03277-4.18657-4.67055z" />
    <path d="m707.70708 745.9316h36.73147c10.17461 0 18.36573 8.19112 18.36573 18.36573 0 10.17462-8.19112 18.36574-18.36573 18.36574h-36.73147c-10.17462 0-18.36574-8.19112-18.36574-18.36574 0-10.17461 8.19112-18.36573 18.36574-18.36573z" fill="#d9d9d9" />
    <path d="m707.70708 745.9316c10.17461 0 18.36573 8.19112 18.36573 18.36573 0 10.17462-8.19112 18.36574-18.36573 18.36574-10.17462 0-18.36574-8.19112-18.36574-18.36574 0-10.17461 8.19112-18.36573 18.36574-18.36573z" fill="#808080" />
    <path d="m707.70708 621.0446h36.73147c10.17461 0 18.36573 8.19112 18.36573 18.36574 0 10.17461-8.19112 18.36573-18.36573 18.36573h-36.73147c-10.17462 0-18.36574-8.19112-18.36574-18.36573 0-10.17462 8.19112-18.36574 18.36574-18.36574z" fill="#d9d9d9" />
    <path d="m707.70708 621.0446c10.17461 0 18.36573 8.19112 18.36573 18.36574 0 10.17461-8.19112 18.36573-18.36573 18.36573-10.17462 0-18.36574-8.19112-18.36574-18.36573 0-10.17462 8.19112-18.36574 18.36574-18.36574z" fill="#808080" />
    <path d="m744.43855 419.75614h-36.73147c-10.17462 0-18.36574 8.19112-18.36574 18.36574s8.19112 18.36573 18.36574 18.36573h36.73147c10.17461 0 18.36573-8.19111 18.36573-18.36573s-8.19112-18.36574-18.36573-18.36574z" fill="#002bff" opacity=".2" />
    <path d="m744.43855 419.75614c-10.17462 0-18.36574 8.19112-18.36574 18.36574s8.19112 18.36573 18.36574 18.36573c10.17461 0 18.36573-8.19111 18.36573-18.36573s-8.19112-18.36574-18.36573-18.36574z" fill="#002bff" />
    <path d="m622.49007 485.87269h132.23329c4.06985 0 7.34629 3.27645 7.34629 7.34629v30.85444c0 4.06984-3.27644 7.34629-7.34629 7.34629h-132.23329c-4.06985 0-7.3463-3.27645-7.3463-7.34629v-30.85444c0-4.06984 3.27645-7.34629 7.3463-7.34629z" fill="#fff" />
    <path d="m662.38647 510.11092c2.05853-.34309 3.32531-2.19049 3.32531-4.27541 0-2.82387-2.32244-4.69766-5.64776-4.69766-2.63914 0-4.98797 1.18761-5.91166 2.95584l1.42514 1.47791c.81812-1.47791 2.32244-2.34883 4.249-2.34883 1.97936 0 3.43089.8973 3.43089 2.77109 0 1.84739-1.39875 3.21975-3.93231 3.21975h-.73897v1.95296h.68618c2.85027 0 4.38096 1.42513 4.38096 3.64201 0 2.19049-1.47791 3.29893-3.90592 3.29893-2.19048 0-3.53644-.89731-4.32819-2.32245l-1.55709 1.55709c1.10844 1.821 3.21975 2.87667 5.88528 2.87667 3.80037 0 6.30754-2.1641 6.30754-5.41024 0-2.48079-1.42514-4.3018-3.6684-4.69766z" fill="#002bff" />
    <path d="m681.41382 516.60319c1.97936 0 3.95872-1.08205 5.04075-2.85027v1.16123c0 .79174.79174 1.5307 1.71545 1.5307.2903 0 .52782-.0264 1.02926-.10564v-2.00574c-.52783-.0265-.73896-.26393-.73896-.84453v-16.41543h-2.32245v8.23411c-1.00287-1.66266-2.82387-2.98223-5.04074-2.98223-3.64202 0-6.25476 3.24614-6.25476 7.15206 0 3.80035 2.74471 7.12567 6.57145 7.12567zm.55422-2.00574c-2.66553 0-4.72405-2.32245-4.72405-5.09354 0-2.63913 1.79462-5.1727 4.51292-5.1727 1.74184 0 3.72119 1.42513 4.38096 3.21975v3.95869c-.34308 1.71545-2.50717 3.0878-4.16983 3.0878z" fill="#002bff" />
    <path d="m694.65982 516.33928v-13.7763h-2.32244v13.7763zm0-16.36265v-2.90305h-2.32244v2.90305z" fill="#002bff" />
    <path d="m701.95621 516.60319c2.1377 0 4.11705-.8973 5.35744-2.53357l.0527.97648c.10549.76535.65979 1.39875 1.58348 1.39875.34309 0 .6334-.0264 1.10844-.10564v-2.00574c-.52783-.0265-.73897-.26393-.73897-.84453v-5.62136c0-3.48367-2.16408-5.54219-5.7533-5.54219-1.82102 0-3.58924.60699-5.35747 1.79461l.76536 1.5043c1.50431-1.05565 2.95584-1.60987 4.38097-1.60987 2.29604 0 3.642 1.37235 3.642 3.61562v1.10843c-1.05565-.42225-2.50717-.68617-3.85313-.68617-3.40449 0-5.8061 1.74184-5.8061 4.24901 0 2.42801 2.00574 4.3018 4.61848 4.3018zm.60701-1.74183c-1.71545 0-3.00862-1.18761-3.00862-2.7447 0-1.58348 1.60987-2.66553 3.93231-2.66553 1.18762 0 2.42801.23752 3.51005.65979v2.03213c0 .3167-.18473.71256-.50143 1.02926-.73897 1.02927-2.29606 1.68905-3.93231 1.68905z" fill="#002bff" />
    <path d="m717.88835 516.60319c3.32532 0 5.46301-1.63627 5.46301-4.19623 0-2.34883-1.74182-3.08778-5.41022-3.9587-2.34884-.58061-3.24615-.87092-3.24615-2.1641 0-1.58348 1.34596-2.26965 3.03502-2.26965 1.5043 0 3.00861.50143 4.16983 1.5307l1.05566-1.39875c-1.24041-1.08205-3.11418-1.821-5.17272-1.821-2.92943 0-5.27826 1.5043-5.27826 4.2754 0 2.1641 1.39873 2.79748 4.72405 3.61562 2.63914.63339 3.87953 1.02926 3.87953 2.40161 0 1.42514-1.29318 2.26967-3.27253 2.26967-1.76822 0-3.3781-.6334-4.98797-1.8474l-1.00287 1.55709c1.5307 1.29318 3.85313 2.00574 6.04362 2.00574z" fill="#002bff" />
    <path d="m684.73148 323.77091c-3.92024 0-5.13021-3.26687-5.13021-6.65475v-8.68747h-2.17791v8.68747c0 4.40424 1.86333 8.61489 7.33232 8.61489 5.27541 0 7.30813-3.96866 7.30813-8.61489v-8.68747h-2.17792v8.68747c0 3.29108-1.16156 6.65475-5.15441 6.65475z" />
    <path d="m699.71525 325.85204c3.04909 0 5.00922-1.50035 5.00922-3.84767 0-2.15371-1.59715-2.83129-4.96081-3.62986-2.15373-.53237-2.9765-.79856-2.9765-1.98432 0-1.45194 1.23417-2.08112 2.7829-2.08112 1.37935 0 2.75869.45978 3.82346 1.40354l.96797-1.28254c-1.13737-.99217-2.85551-1.66974-4.74303-1.66974-2.6861 0-4.83982 1.37935-4.83982 3.92026 0 1.98432 1.28255 2.56509 4.33164 3.31526 2.41992.58079 3.55727.94377 3.55727 2.20213 0 1.30674-1.18577 2.08111-3.0007 2.08111-1.62132 0-3.09747-.58078-4.57362-1.69393l-.91957 1.42775c1.40355 1.18575 3.53307 1.83913 5.54159 1.83913z" />
    <path d="m711.14063 325.85204c2.17791 0 4.13805-1.06476 5.25121-2.9523l.0483 1.47615c.0242.75017.67757 1.30676 1.50034 1.30676.26619 0 .48398 0 .96797-.0726v-1.83913c-.48399-.0242-.67758-.24199-.67758-.77436v-10.01844h-2.12952v7.91311c-.75017 1.93592-2.41991 3.12169-4.16224 3.12169-1.79074 0-2.6861-1.28256-2.6861-3.87187v-7.16293h-2.12952v7.57433c0 3.48467 1.37934 5.2996 4.01704 5.2996z" />
    <path d="m725.04452 325.85204c1.96013 0 3.77506-.82277 4.91241-2.32312l.0483.89537c.0968.70177.60498 1.28256 1.45195 1.28256.31458 0 .58078-.0242 1.01636-.0968v-1.83913c-.48397-.0242-.67758-.24198-.67758-.77436v-5.15441c0-3.19428-1.98432-5.08181-5.27539-5.08181-1.66974 0-3.29108.55659-4.91242 1.64554l.70178 1.37936c1.37934-.96798 2.71029-1.47615 4.01704-1.47615 2.10533 0 3.33948 1.25834 3.33948 3.31528v1.01636c-.96796-.3872-2.29892-.62918-3.53307-.62918-3.12168 0-5.3238 1.59714-5.3238 3.89604 0 2.22633 1.83913 3.94446 4.23484 3.94446zm.55657-1.59714c-1.57293 0-2.75869-1.08896-2.75869-2.51671 0-1.45194 1.47615-2.44411 3.60566-2.44411 1.08897 0 2.22633.2178 3.21849.60498v1.86333c0 .2904-.16939.65338-.45978.94376-.67758.94376-2.10533 1.54875-3.60568 1.54875zm3.41208-16.31019h-2.12952l-1.40355 2.4441 1.40355.48399z" />
    <path d="m741.90372 312.90552c-.16939-.0242-.38718-.0242-.70177-.0242-1.59713.12106-3.12168 1.28256-3.99285 3.02489v-2.9281h-1.98432v12.63192h2.12952v-7.79209c.67757-1.83913 2.41991-2.92809 4.54942-2.9765z" />
    <path d="m746.14537 325.61004v-12.63193h-2.12953v12.63193zm0-15.00343v-2.6619h-2.12953v2.6619z" />
    <path d="m755.11038 325.85204c3.79925 0 6.38855-3.0249 6.38855-6.53377 0-3.53305-2.6135-6.55794-6.38855-6.55794-3.75086 0-6.36436 3.02489-6.36436 6.55794 0 3.50887 2.5651 6.53377 6.36436 6.53377zm-4.18645-6.50957c0-2.63768 1.88753-4.74301 4.18645-4.74301 2.32312 0 4.21064 2.08113 4.21064 4.69462 0 2.6377-1.88752 4.71883-4.21064 4.71883s-4.18645-2.03274-4.18645-4.67044z" />
  </g>
  <g transform="translate(-92.517 -170.447864)">
    <path d="m705.00024 501.74628h533.99996c2.77 0 5 2.23 5 5v437.00699c0 2.77-2.23 5-5 5h-533.99996c-2.77 0-5-2.23-5-5v-437.00699c0-2.77 2.23-5 5-5z" fill-opacity=".25098" filter="url(#b)" transform="matrix(1.4692588 0 0 1.4692588 -31.95187 -514.32963)" />
    <path d="m1003.8759 214.04995h784.5842c4.0698 0 7.3463 3.27645 7.3463 7.3463v642.07636c0 4.06985-3.2765 7.3463-7.3463 7.3463h-784.5842c-4.06981 0-7.34626-3.27645-7.34626-7.3463v-642.07636c0-4.06985 3.27645-7.3463 7.34626-7.3463z" fill="#383838" />
    <path d="m1064.5904 390.18721h667.0443c4.0698 0 7.3463 3.27645 7.3463 7.3463v157.21088c0 4.06985-3.2765 7.34629-7.3463 7.34629h-667.0443c-4.0698 0-7.3463-3.27644-7.3463-7.34629v-157.21088c0-4.06985 3.2765-7.3463 7.3463-7.3463z" fill="#fff" fill-opacity=".05098" />
    <path d="m1079.2543 316.25132c-2.7833-2.05326-6.5704-3.65023-10.9507-3.65023-6.6617 0-11.772 3.46772-11.772 9.85561 0 5.0647 3.2396 6.98107 9.6275 8.66931 5.5666 1.46009 8.8974 2.37264 8.8974 5.65785 0 2.69205-2.2814 4.15214-6.2966 4.15214-4.9279 0-9.5819-2.55516-11.1332-4.15214l-2.3271 4.38028c3.6959 2.82893 8.4412 4.38027 13.369 4.38027 6.5248 0 11.8633-2.69204 11.8633-9.30809 0-5.886-4.1066-7.80236-10.677-9.39933-5.3841-1.32322-7.9849-2.09888-7.9849-5.20159 0-2.78329 2.0077-4.47153 6.2967-4.47153 3.8784 0 7.5742 1.96201 8.7605 3.28521z" fill="#002bff" stroke-width="1.140696" />
    <path d="m1095.7409 345.68129c7.4373 0 12.2739-5.74911 12.2739-12.36515s-4.8366-12.36515-12.2739-12.36515c-7.3917 0-12.2739 5.74911-12.2739 12.36515s4.7909 12.36515 12.2739 12.36515zm-7.1179-12.31953c0-4.56278 3.1939-8.12175 7.1179-8.12175 3.9696 0 7.118 3.51335 7.118 8.07613s-3.1484 8.07613-7.118 8.07613-7.1179-3.42209-7.1179-8.03051z" fill="#002bff" stroke-width="1.140696" />
    <path d="m1126.0179 345.68129c6.2053 0 10.5856-5.52096 10.5856-12.41077 0-6.61604-4.7453-12.31953-11.2701-12.31953-3.6046 0-6.616 1.87074-8.4411 4.69966v-4.28902h-4.4259v33.58212h5.019v-14.19026c1.6883 2.92018 4.6997 4.9278 8.5325 4.9278zm-1.6426-4.28902c-2.9202 0-5.6579-2.28139-6.8899-5.20157v-6.25102c.7301-2.64641 3.924-4.69967 6.5248-4.69967 4.2434 0 7.4374 3.6046 7.4374 8.03051 0 4.15213-2.829 8.12175-7.0723 8.12175z" fill="#002bff" stroke-width="1.140696" />
    <path d="m1162.5615 330.66973c0-5.20159-1.597-9.71874-7.5286-9.71874-3.6958 0-7.0267 1.96199-8.8518 5.20157v-14.23589h-5.0191v33.30834h5.0191v-14.19026c1.0038-3.2852 4.1065-5.61223 6.8442-5.61223 2.8745 0 4.5171 2.09888 4.5171 6.43353v13.36896h5.0191z" fill="#002bff" stroke-width="1.140696" />
    <path d="m1173.4509 345.22501v-23.86338h-5.0191v23.86338zm0-27.78737v-5.52097h-5.0191v5.52097z" fill="#002bff" stroke-width="1.140696" />
    <path d="m1185.8246 345.68129c3.559 0 6.8442-1.55135 8.9887-4.33464l.1369 1.50572c.2282 1.50572 1.3232 2.60079 3.2396 2.60079.6844 0 1.3232-.0457 2.2814-.22813v-4.28903c-.9582-.0455-1.3232-.50192-1.3232-1.64261v-8.62366c0-6.2054-3.8784-9.71874-10.4032-9.71874-3.3764 0-6.5247 1.04943-9.5818 3.10269l1.5513 3.19395c2.6008-1.77949 5.0647-2.73767 7.5743-2.73767 3.7414 0 5.8403 2.09888 5.8403 5.61223v1.64261c-1.7338-.68443-4.0609-1.09507-6.2966-1.09507-5.9317 0-10.0838 3.05707-10.0838 7.5286 0 4.24339 3.4677 7.48296 8.0762 7.48296zm1.3688-3.69585c-2.692 0-4.6996-1.82511-4.6996-4.19777 0-2.50952 2.5551-4.24338 6.1141-4.24338 1.8251 0 3.8327.41064 5.521 1.04943v3.14833c0 .54753-.365 1.23194-.9582 1.73386-1.1863 1.55134-3.559 2.50953-5.9773 2.50953z" fill="#002bff" stroke-width="1.140696" />
    <g fill="#fff">
      <g stroke-width=".991202">
        <path d="m1067.5542 304.09777h-3.2912v-25.38021h-8.9634v-2.92327h21.218v2.92327h-8.9634z" />
        <path d="m1097.6 304.09777-3.8913-12.4481q-.3678-1.14222-1.3745-5.18834h-.1549q-.7743 3.38791-1.3551 5.22705l-4.0074 12.40939h-3.717l-5.7885-21.21793h3.3686q2.0521 7.99544 3.1168 12.17708 1.0841 4.18164 1.239 5.6336h.1549q.213-1.10349.6776-2.84584.4839-1.7617.8324-2.78776l3.8913-12.17708h3.4847l3.7944 12.17708q1.0841 3.32983 1.4713 5.59488h.1549q.077-.69694.4066-2.14889.3484-1.45197 4.0461-15.62307h3.3298l-5.8659 21.21793z" />
        <path d="m1120.0569 304.48496q-4.7043 0-7.434-2.8652-2.7103-2.86518-2.7103-7.95671 0-5.13025 2.5167-8.15033 2.5361-3.02006 6.7952-3.02006 3.988 0 6.3111 2.63288 2.3232 2.61352 2.3232 6.91131v2.03274h-14.6164q.097 3.73637 1.8779 5.67231 1.8004 1.93594 5.0528 1.93594 3.4266 0 6.7758-1.4326v2.8652q-1.7037.73566-3.233 1.04541-1.5101.32911-3.659.32911zm-.8712-19.30134q-2.5554 0-4.0848 1.66491-1.51 1.6649-1.7811 4.60753h11.093q0-3.03942-1.3552-4.64625-1.3551-1.62619-3.8719-1.62619z" />
        <path d="m1146.3664 304.09777-.6389-3.02006h-.1548q-1.5875 1.99402-3.175 2.71031-1.5681.69694-3.93.69694-3.1555 0-4.956-1.62619-1.781-1.62619-1.781-4.6269 0-6.42733 10.2798-6.73708l3.6009-.11622v-1.31644q0-2.49737-1.0842-3.67829-1.0647-1.20028-3.4266-1.20028-2.6522 0-6.0014 1.62619l-.9873-2.45866q1.5681-.8518 3.4266-1.33579 1.8779-.48399 3.7557-.48399 3.7945 0 5.6143 1.68427 1.8391 1.68427 1.8391 5.40128v14.48085zm-7.2598-2.26505q3.0007 0 4.7043-1.64554 1.723-1.64556 1.723-4.60756v-1.91657l-3.2136.13547q-3.8332.13546-5.5368 1.20028-1.6843 1.0454-1.6843 3.27174 0 1.74235 1.0454 2.65225 1.0648.90988 2.962.90988z" />
        <path d="m1158.5628 293.23714q.8325-1.18093 2.5361-3.09752l6.8532-7.25978h3.8139l-8.5956 9.04086 9.1957 12.17707h-3.8913l-7.4921-10.02818-2.4199 2.09082v7.93736h-3.1749v-30.12326h3.1749v15.97152q0 1.06477-.1549 3.29111z" />
      </g>
      <path d="m1181.769 295.33304h-2.6066v8.95885h-2.2783v-8.95885h-1.757v-1.06194l1.757-.69507v-.6951q0-1.89217.8882-2.79962.8881-.91713 2.7127-.91713 1.1971 0 2.3556.3958l-.5986 1.7184q-.8399-.2703-1.6025-.2703-.7723 0-1.1295.4827-.3476.47304-.3476 1.42878v.69508h2.6066z" stroke-width=".494281" />
      <path d="m1193.0641 298.93396q0 2.61622-1.3419 4.08361-1.3419 1.46741-3.7361 1.46741-1.4963 0-2.6452-.67579-1.1488-.67577-1.7666-1.94043-.6179-1.26467-.6179-2.9348 0-2.5969 1.3323-4.05466 1.3322-1.45774 3.7553-1.45774 2.317 0 3.6685 1.49635 1.3516 1.48672 1.3516 4.01605zm-7.7714 0q0 3.69746 2.732 3.69746 2.7031 0 2.7031-3.69746 0-3.65884-2.7224-3.65884-1.4288 0-2.0756.94609-.6371.94608-.6371 2.71275z" stroke-width=".494281" />
      <path d="m1201.0962 293.42156q.6854 0 1.1295.0965l-.2221 2.11422q-.4827-.11578-1.004-.11578-1.3612 0-2.2107.88817-.8399.88817-.8399 2.3073v5.57996h-2.2687v-10.67725h1.7763l.2993 1.88252h.1159q.531-.95574 1.3805-1.51566.8592-.55993 1.8439-.55993z" stroke-width=".494281" />
      <path d="m1597.4567 272.82031h132.2335c4.0698 0 7.3463 3.27644 7.3463 7.34629v73.46303c0 4.06985-3.2765 7.34629-7.3463 7.34629h-132.2335c-4.0698 0-7.3463-3.27644-7.3463-7.34629v-73.46303c0-4.06985 3.2765-7.34629 7.3463-7.34629z" fill-opacity=".05098" />
      <path d="m1062.6459 591.6595h667.0443c4.0698 0 7.3463 3.27645 7.3463 7.3463v80.80933c0 4.06985-3.2765 7.3463-7.3463 7.3463h-667.0443c-4.0698 0-7.3463-3.27645-7.3463-7.3463v-80.80933c0-4.06985 3.2765-7.3463 7.3463-7.3463z" fill-opacity=".05098" />
      <path d="m1062.6459 716.54668h667.0443c4.0698 0 7.3463 3.27644 7.3463 7.34629v80.80934c0 4.06984-3.2765 7.34629-7.3463 7.34629h-667.0443c-4.0698 0-7.3463-3.27645-7.3463-7.34629v-80.80934c0-4.06985 3.2765-7.34629 7.3463-7.34629z" fill-opacity=".05098" />
      <path d="m1087.0197 446.99646v-6.17077h4.5494l3.9203 6.17077h2.4683l-4.1623-6.58217c2.178-.55657 3.6057-2.71031 3.6057-5.10601 0-2.7103-2.1779-5.49319-5.2028-5.49319h-7.3565v17.18137zm0-15.24544h5.0576c1.6697 0 3.1217 1.62134 3.1217 3.55726 0 1.88753-1.1858 3.58147-2.9765 3.58147h-5.2028z" />
      <path d="m1105.5483 447.23844c2.5409 0 4.6946-1.33094 5.5174-3.19427l-1.8392-.50819c-.5323 1.25835-2.0569 2.10532-3.6056 2.10532-2.2022 0-4.0655-1.74234-4.2591-4.23483h10.4782c.024-.14516.048-.48399.048-.82277 0-3.38789-2.4925-6.43698-6.316-6.43698-3.7992 0-6.4612 2.97649-6.4612 6.53377 0 3.55727 2.6378 6.55795 6.437 6.55795zm-4.2349-7.40491c.1694-2.39573 2.0086-4.08967 4.2591-4.08967s4.0896 1.66974 4.3074 4.08967z" />
      <path d="m1125.2414 439.44632c0-3.04908-.8469-5.2996-3.775-5.2996-2.2263 0-4.2591 1.16156-5.2512 2.9281v-2.7103h-1.936v12.63194h2.1296v-7.62274c.5807-1.91173 2.4683-3.31526 4.2106-3.31526 1.6697 0 2.4925 1.18575 2.4925 3.87186v7.06614h2.1295z" />
      <path d="m1134.0703 447.23844c3.7993 0 6.3886-3.02488 6.3886-6.53375 0-3.53308-2.6135-6.55797-6.3886-6.55797-3.7508 0-6.3643 3.02489-6.3643 6.55797 0 3.50887 2.5651 6.53375 6.3643 6.53375zm-4.1864-6.50955c0-2.63771 1.8875-4.74303 4.1864-4.74303 2.3231 0 4.2107 2.08112 4.2107 4.69463 0 2.63771-1.8876 4.71882-4.2107 4.71882s-4.1864-2.03272-4.1864-4.67042z" />
      <path d="m1148.5664 446.99646 4.985-12.63194h-2.0327l-4.0171 10.76861-3.9929-10.76861h-2.2021l4.985 12.63194z" />
      <path d="m1158.547 447.23844c1.9601 0 3.775-.82277 4.9124-2.32312l.048.89537c.097.70178.605 1.28256 1.452 1.28256.3146 0 .5808-.0242 1.0164-.0968v-1.83913c-.484-.0242-.6776-.24201-.6776-.77438v-5.15442c0-3.19427-1.9844-5.08181-5.2754-5.08181-1.6698 0-3.2911.55658-4.9124 1.64554l.7017 1.37935c1.3794-.96796 2.7103-1.47615 4.0171-1.47615 2.1053 0 3.3394 1.25836 3.3394 3.31528v1.01638c-.9679-.38718-2.2989-.6292-3.533-.6292-3.1217 0-5.3238 1.59716-5.3238 3.89608 0 2.22631 1.8391 3.94444 4.2348 3.94444zm.5566-1.59714c-1.573 0-2.7587-1.08896-2.7587-2.51671 0-1.45193 1.4761-2.4441 3.6056-2.4441 1.089 0 2.2263.21779 3.2185.60497v1.86335c0 .29038-.1694.65336-.4598.94376-.6775.94376-2.1053 1.54873-3.6056 1.54873z" />
      <path d="m1175.4062 434.29192c-.1694-.0242-.3872-.0242-.7018-.0242-1.5971.12092-3.1217 1.28254-3.9928 3.02488v-2.92809h-1.9844v12.63194h2.1296v-7.79212c.6775-1.83913 2.4199-2.92809 4.5494-2.97649z" />
      <path d="m1188.6129 447.23844c3.7992 0 6.3885-3.02488 6.3885-6.53375 0-3.53308-2.6135-6.55797-6.3885-6.55797-3.7509 0-6.3644 3.02489-6.3644 6.55797 0 3.50887 2.5651 6.53375 6.3644 6.53375zm-4.1865-6.50955c0-2.63771 1.8875-4.74303 4.1865-4.74303 2.3231 0 4.2106 2.08112 4.2106 4.69463 0 2.63771-1.8875 4.71882-4.2106 4.71882s-4.1865-2.03272-4.1865-4.67042z" />
      <path d="m1202.0339 447.23844c3.0491 0 5.0092-1.50035 5.0092-3.84765 0-2.15373-1.5971-2.83129-4.9608-3.62986-2.1537-.5324-2.9765-.79859-2.9765-1.98434 0-1.45195 1.2342-2.08113 2.7829-2.08113 1.3794 0 2.7587.45979 3.8235 1.40355l.968-1.28256c-1.1374-.99216-2.8556-1.66973-4.7431-1.66973-2.6861 0-4.8398 1.37935-4.8398 3.92026 0 1.98433 1.2826 2.56512 4.3316 3.31529 2.4199.58077 3.5573.94376 3.5573 2.20211 0 1.30675-1.1858 2.08112-3.0007 2.08112-1.6213 0-3.0975-.58077-4.5736-1.69394l-.9196 1.42775c1.4036 1.18575 3.5331 1.83913 5.5416 1.83913z" />
      <path d="m1215.756 444.50395c0 1.66974 1.0163 2.6619 2.6619 2.6619.7501 0 1.8391-.21779 2.5409-.50819l-.3388-1.71812c-.4114.16939-.9438.29038-1.3068.29038-.8953 0-1.4277-.55658-1.4277-1.50035v-14.39847h-2.1295z" />
      <path d="m1224.7376 446.99646v-12.63194h-2.1295v12.63194zm0-15.00346v-2.6619h-2.1295v2.6619z" />
      <path d="m1234.114 446.99646 4.985-12.63194h-2.0327l-4.017 10.76861-3.9929-10.76861h-2.2021l4.985 12.63194z" />
      <path d="m1247.8618 434.29192c-.1694-.0242-.3872-.0242-.7018-.0242-1.5971.12092-3.1217 1.28254-3.9929 3.02488v-2.92809h-1.9843v12.63194h2.1295v-7.79212c.6776-1.83913 2.4199-2.92809 4.5495-2.97649z" />
      <path d="m1255.2077 447.23844c3.7993 0 6.3886-3.02488 6.3886-6.53375 0-3.53308-2.6135-6.55797-6.3886-6.55797-3.7509 0-6.3644 3.02489-6.3644 6.55797 0 3.50887 2.5651 6.53375 6.3644 6.53375zm-4.1864-6.50955c0-2.63771 1.8875-4.74303 4.1864-4.74303 2.3231 0 4.2106 2.08112 4.2106 4.69463 0 2.63771-1.8875 4.71882-4.2106 4.71882s-4.1864-2.03272-4.1864-4.67042z" />
      <path d="m1268.6287 447.23844c3.0491 0 5.0093-1.50035 5.0093-3.84765 0-2.15373-1.5972-2.83129-4.9609-3.62986-2.1537-.5324-2.9764-.79859-2.9764-1.98434 0-1.45195 1.2341-2.08113 2.7829-2.08113 1.3793 0 2.7586.45979 3.8234 1.40355l.968-1.28256c-1.1374-.99216-2.8555-1.66973-4.743-1.66973-2.6861 0-4.8399 1.37935-4.8399 3.92026 0 1.98433 1.2826 2.56512 4.3317 3.31529 2.4199.58077 3.5572.94376 3.5572 2.20211 0 1.30675-1.1857 2.08112-3.0007 2.08112-1.6213 0-3.0974-.58077-4.5736-1.69394l-.9195 1.42775c1.4035 1.18575 3.533 1.83913 5.5415 1.83913z" />
      <path d="m1285.5451 447.23844c1.9601 0 3.775-.82277 4.9124-2.32312l.048.89537c.097.70178.605 1.28256 1.452 1.28256.3146 0 .5808-.0242 1.0163-.0968v-1.83913c-.4839-.0242-.6775-.24201-.6775-.77438v-5.15442c0-3.19427-1.9844-5.08181-5.2754-5.08181-1.6698 0-3.2911.55658-4.9125 1.64554l.7018 1.37935c1.3794-.96796 2.7103-1.47615 4.0171-1.47615 2.1053 0 3.3394 1.25836 3.3394 3.31528v1.01638c-.9679-.38718-2.2989-.6292-3.533-.6292-3.1217 0-5.3238 1.59716-5.3238 3.89608 0 2.22631 1.8391 3.94444 4.2348 3.94444zm.5566-1.59714c-1.573 0-2.7588-1.08896-2.7588-2.51671 0-1.45193 1.4762-2.4441 3.6057-2.4441 1.089 0 2.2263.21779 3.2185.60497v1.86335c0 .29038-.1694.65336-.4598.94376-.6776.94376-2.1053 1.54873-3.6056 1.54873z" />
      <path d="m1299.6214 447.23844c2.1779 0 4.1381-1.06475 5.2512-2.95228l.048 1.47613c.024.75018.6775 1.30676 1.5003 1.30676.2662 0 .484 0 .968-.0726v-1.83913c-.484-.0242-.6776-.242-.6776-.77437v-10.01844h-2.1295v7.91312c-.7502 1.93593-2.4199 3.12168-4.1623 3.12168-1.7907 0-2.6861-1.28255-2.6861-3.87185v-7.16295h-2.1295v7.57433c0 3.48467 1.3793 5.2996 4.0171 5.2996z" />
      <path d="m1316.3082 444.67334c-.242.14516-1.0164.53238-1.8633.53238-.7502 0-1.3794-.41139-1.4278-1.33095v-7.84051h2.8313v-1.66974h-2.8313v-4.21065h-2.1295v4.21065h-1.7182v1.66974h1.7182v8.49389c0 1.81493 1.3067 2.6377 2.8555 2.6377 1.3551 0 2.5409-.55659 3.0733-.79857z" />
      <path d="m1324.1185 447.23844c3.7992 0 6.3885-3.02488 6.3885-6.53375 0-3.53308-2.6135-6.55797-6.3885-6.55797-3.7509 0-6.3644 3.02489-6.3644 6.55797 0 3.50887 2.5651 6.53375 6.3644 6.53375zm-4.1865-6.50955c0-2.63771 1.8875-4.74303 4.1865-4.74303 2.3231 0 4.2106 2.08112 4.2106 4.69463 0 2.63771-1.8875 4.71882-4.2106 4.71882-2.3232 0-4.1865-2.03272-4.1865-4.67042z" />
      <path d="m1352.1558 439.44632c0-3.02488-.9196-5.2996-3.8235-5.2996-2.0569 0-3.7025 1.06477-4.8156 3.07329-.2904-1.79073-1.573-3.07329-3.6783-3.07329-2.0569 0-3.775 1.06477-4.7914 2.9281v-2.7103h-1.9359v12.63194h2.1295v-7.62274c.5808-1.98432 2.1053-3.31526 3.7993-3.31526 1.6697 0 2.5167 1.18575 2.5167 3.87186v7.06614h2.1295v-7.59854c.5808-1.96012 2.0811-3.33946 3.7993-3.33946 1.6697 0 2.5408 1.23414 2.5408 3.87186v7.06614h2.1296z" />
      <path d="m1358.7096 447.23844c1.9601 0 3.7751-.82277 4.9124-2.32312l.048.89537c.097.70178.6049 1.28256 1.4519 1.28256.3146 0 .5808-.0242 1.0164-.0968v-1.83913c-.484-.0242-.6776-.24201-.6776-.77438v-5.15442c0-3.19427-1.9843-5.08181-5.2754-5.08181-1.6698 0-3.2911.55658-4.9124 1.64554l.7017 1.37935c1.3794-.96796 2.7103-1.47615 4.0171-1.47615 2.1053 0 3.3395 1.25836 3.3395 3.31528v1.01638c-.968-.38718-2.2989-.6292-3.5331-.6292-3.1217 0-5.3238 1.59716-5.3238 3.89608 0 2.22631 1.8391 3.94444 4.2348 3.94444zm.5566-1.59714c-1.573 0-2.7587-1.08896-2.7587-2.51671 0-1.45193 1.4761-2.4441 3.6056-2.4441 1.089 0 2.2264.21779 3.2185.60497v1.86335c0 .29038-.1694.65336-.4598.94376-.6775.94376-2.1053 1.54873-3.6056 1.54873z" />
      <path d="m1374.8209 444.67334c-.242.14516-1.0164.53238-1.8633.53238-.7502 0-1.3794-.41139-1.4278-1.33095v-7.84051h2.8313v-1.66974h-2.8313v-4.21065h-2.1295v4.21065h-1.7181v1.66974h1.7181v8.49389c0 1.81493 1.3067 2.6377 2.8555 2.6377 1.3551 0 2.5409-.55659 3.0733-.79857z" />
      <path d="m1379.4323 446.99646v-12.63194h-2.1295v12.63194zm0-15.00346v-2.6619h-2.1295v2.6619z" />
      <path d="m1382.033 440.6563c0 3.55726 2.6377 6.58214 6.437 6.58214 2.5408 0 4.6462-1.33094 5.3964-3.17007l-2.0812-.62918c-.3872 1.06476-1.8875 1.96012-3.3636 1.96012-2.299 0-4.2107-2.08111-4.2107-4.74301 0-2.68612 1.8391-4.67044 4.1865-4.67044 1.4035 0 2.6377.70176 3.291 1.88753l2.0812-.65338c-.9196-1.86333-2.8313-3.07329-5.3238-3.07329-3.8477 0-6.4128 2.95229-6.4128 6.50958z" />
      <path d="m1399.5456 447.23844c1.9601 0 3.7751-.82277 4.9124-2.32312l.048.89537c.097.70178.605 1.28256 1.4519 1.28256.3146 0 .5808-.0242 1.0164-.0968v-1.83913c-.484-.0242-.6776-.24201-.6776-.77438v-5.15442c0-3.19427-1.9843-5.08181-5.2754-5.08181-1.6698 0-3.2911.55658-4.9124 1.64554l.7017 1.37935c1.3794-.96796 2.7103-1.47615 4.0171-1.47615 2.1053 0 3.3395 1.25836 3.3395 3.31528v1.01638c-.968-.38718-2.2989-.6292-3.5331-.6292-3.1217 0-5.3238 1.59716-5.3238 3.89608 0 2.22631 1.8391 3.94444 4.2348 3.94444zm.5566-1.59714c-1.573 0-2.7587-1.08896-2.7587-2.51671 0-1.45193 1.4761-2.4441 3.6057-2.4441 1.0889 0 2.2263.21779 3.2184.60497v1.86335c0 .29038-.1694.65336-.4598.94376-.6775.94376-2.1053 1.54873-3.6056 1.54873z" />
      <path d="m1428.7706 439.44632c0-3.02488-.9196-5.2996-3.8235-5.2996-2.0569 0-3.7024 1.06477-4.8156 3.07329-.2904-1.79073-1.5729-3.07329-3.6783-3.07329-2.0569 0-3.775 1.06477-4.7914 2.9281v-2.7103h-1.9359v12.63194h2.1295v-7.62274c.5808-1.98432 2.1053-3.31526 3.7992-3.31526 1.6698 0 2.5167 1.18575 2.5167 3.87186v7.06614h2.1296v-7.59854c.5808-1.96012 2.0811-3.33946 3.7992-3.33946 1.6698 0 2.541 1.23414 2.541 3.87186v7.06614h2.1295z" />
      <path d="m1437.6717 447.23844c2.5408 0 4.6946-1.33094 5.5174-3.19427l-1.8392-.50819c-.5323 1.25835-2.0568 2.10532-3.6056 2.10532-2.2021 0-4.0655-1.74234-4.2591-4.23483h10.4782c.025-.14516.048-.48399.048-.82277 0-3.38789-2.4925-6.43698-6.3159-6.43698-3.7993 0-6.4612 2.97649-6.4612 6.53377 0 3.55727 2.6377 6.55795 6.4369 6.55795zm-4.2349-7.40491c.1694-2.39573 2.0086-4.08967 4.259-4.08967 2.2507 0 4.0897 1.66974 4.3075 4.08967z" />
      <path d="m1457.3648 439.44632c0-3.04908-.8469-5.2996-3.775-5.2996-2.2263 0-4.259 1.16156-5.2512 2.9281v-2.7103h-1.9359v12.63194h2.1295v-7.62274c.5808-1.91173 2.4682-3.31526 4.2106-3.31526 1.6698 0 2.4925 1.18575 2.4925 3.87186v7.06614h2.1295z" />
      <path d="m1466.5602 444.67334c-.242.14516-1.0165.53238-1.8633.53238-.7503 0-1.3794-.41139-1.4279-1.33095v-7.84051h2.8313v-1.66974h-2.8313v-4.21065h-2.1295v4.21065h-1.7182v1.66974h1.7182v8.49389c0 1.81493 1.3067 2.6377 2.8555 2.6377 1.3552 0 2.5409-.55659 3.0734-.79857z" />
      <path d="m1474.443 447.23844c2.5408 0 4.6946-1.33094 5.5174-3.19427l-1.8392-.50819c-.5323 1.25835-2.0568 2.10532-3.6056 2.10532-2.2021 0-4.0654-1.74234-4.2591-4.23483h10.4782c.024-.14516.049-.48399.049-.82277 0-3.38789-2.4925-6.43698-6.3159-6.43698-3.7992 0-6.4612 2.97649-6.4612 6.53377 0 3.55727 2.6377 6.55795 6.4369 6.55795zm-4.2348-7.40491c.1694-2.39573 2.0085-4.08967 4.2589-4.08967 2.2506 0 4.0897 1.66974 4.3076 4.08967z" />
      <path d="m1084.9729 517.79517v-7.80489h7.8294v-1.84078h-7.8294v-5.81686h9.302v-1.96349h-11.511v17.42602z" />
      <path d="m1098.6521 518.04061c1.9881 0 3.8289-.83448 4.9824-2.35619l.049.90812c.098.71177.6136 1.30081 1.4726 1.30081.3191 0 .589-.0245 1.0308-.0982v-1.86531c-.4908-.0245-.6872-.24544-.6872-.78541v-5.22779c0-3.23978-2.0126-5.15419-5.3505-5.15419-1.6935 0-3.338.5645-4.9824 1.66899l.7118 1.39898c1.399-.98174 2.7489-1.49717 4.0742-1.49717 2.1353 0 3.3871 1.27628 3.3871 3.3625v1.03083c-.9818-.3927-2.3317-.63814-3.5834-.63814-3.1662 0-5.3996 1.61988-5.3996 3.95154 0 2.25801 1.8653 4.00061 4.2951 4.00061zm.5645-1.61988c-1.5953 0-2.798-1.10446-2.798-2.55255 0-1.47262 1.4972-2.4789 3.6571-2.4789 1.1044 0 2.258.22089 3.2643.61359v1.88986c0 .29453-.1718.66268-.4663.95721-.6873.95719-2.1353 1.57079-3.6571 1.57079z" />
      <path d="m1109.0265 515.26718c0 1.69351 1.0308 2.69981 2.6998 2.69981.7608 0 1.8653-.2209 2.5771-.51542l-.3437-1.74261c-.4172.17181-.9572.29453-1.3253.29453-.9081 0-1.4481-.56451-1.4481-1.52171v-14.60351h-2.1598z" />
      <path d="m1122.0875 515.43898c-.2454.14727-1.0308.53997-1.8898.53997-.7609 0-1.399-.41724-1.4481-1.34991v-7.95216h2.8716v-1.69352h-2.8716v-4.27061h-2.1598v4.27061h-1.7426v1.69352h1.7426v8.61484c0 1.84077 1.3253 2.67527 2.8961 2.67527 1.3745 0 2.5771-.5645 3.1171-.80994z" />
      <path d="m1127.8937 518.04061c1.988 0 3.8288-.83448 4.9824-2.35619l.049.90812c.098.71177.6136 1.30081 1.4726 1.30081.3191 0 .5891-.0245 1.0309-.0982v-1.86531c-.4909-.0245-.6873-.24544-.6873-.78541v-5.22779c0-3.23978-2.0125-5.15419-5.3505-5.15419-1.6935 0-3.3379.5645-4.9824 1.66899l.7118 1.39898c1.399-.98174 2.7489-1.49717 4.0743-1.49717 2.1353 0 3.387 1.27628 3.387 3.3625v1.03083c-.9817-.3927-2.3316-.63814-3.5834-.63814-3.1661 0-5.3996 1.61988-5.3996 3.95154 0 2.25801 1.8653 4.00061 4.2952 4.00061zm.5645-1.61988c-1.5954 0-2.798-1.10446-2.798-2.55255 0-1.47262 1.4972-2.4789 3.657-2.4789 1.1045 0 2.258.22089 3.2643.61359v1.88986c0 .29453-.1718.66268-.4663.95721-.6872.95719-2.1353 1.57079-3.657 1.57079z" />
      <path d="m1149.3372 510.13754c0-3.09249-.859-5.37507-3.8288-5.37507-2.258 0-4.3197 1.17809-5.326 2.96979v-2.7489h-1.9635v12.81181h2.1599v-7.73125c.589-1.93895 2.5034-3.36249 4.2706-3.36249 1.6935 0 2.528 1.20264 2.528 3.92699v7.16675h2.1598z" />
      <path d="m1157.9728 518.04061c1.8407 0 3.6815-1.00629 4.6878-2.65072v1.07992c0 .73632.7363 1.42354 1.5954 1.42354.2699 0 .4908-.0245.9572-.0982v-1.86531c-.4909-.0245-.6873-.24544-.6873-.78541v-15.26613h-2.1598v7.65764c-.9327-1.54626-2.6262-2.77344-4.6879-2.77344-3.387 0-5.8168 3.01888-5.8168 6.65135 0 3.5343 2.5525 6.62679 6.1114 6.62679zm.5154-1.86531c-2.4789 0-4.3933-2.15985-4.3933-4.73693 0-2.45437 1.6689-4.81058 4.1969-4.81058 1.6199 0 3.4607 1.32536 4.0743 2.99434v3.68155c-.3191 1.59535-2.3317 2.87162-3.8779 2.87162z" />
      <path d="m1173.7275 518.04061c3.8534 0 6.4796-3.06796 6.4796-6.62679 0-3.58338-2.6508-6.65135-6.4796-6.65135-3.8042 0-6.455 3.06797-6.455 6.65135 0 3.55883 2.6017 6.62679 6.455 6.62679zm-4.246-6.60224c0-2.67527 1.9144-4.81058 4.246-4.81058 2.3562 0 4.2706 2.11077 4.2706 4.76149 0 2.67526-1.9144 4.78602-4.2706 4.78602s-4.246-2.06168-4.246-4.73693z" />
      <path d="m1195.9768 518.04061c3.387 0 5.7432-2.99433 5.7432-6.65133 0-3.48521-2.5525-6.62681-6.0623-6.62681-1.9389 0-3.657 1.05537-4.6633 2.62618v-2.40529h-1.9144v18.03964h2.1598v-7.75582c.9573 1.59534 2.6262 2.77343 4.737 2.77343zm-.6627-1.86531c-1.7426 0-3.3625-1.32536-4.0743-3.01888v-3.657c.3191-1.5708 2.3317-2.87163 3.878-2.87163 2.4789 0 4.3933 2.18439 4.3933 4.76149 0 2.42982-1.669 4.78602-4.197 4.78602z" />
      <path d="m1207.6608 518.04061c1.988 0 3.8288-.83448 4.9823-2.35619l.049.90812c.098.71177.6136 1.30081 1.4726 1.30081.3191 0 .5891-.0245 1.0309-.0982v-1.86531c-.4909-.0245-.6872-.24544-.6872-.78541v-5.22779c0-3.23978-2.0126-5.15419-5.3506-5.15419-1.6935 0-3.3379.5645-4.9824 1.66899l.7118 1.39898c1.399-.98174 2.7489-1.49717 4.0743-1.49717 2.1353 0 3.387 1.27628 3.387 3.3625v1.03083c-.9817-.3927-2.3316-.63814-3.5834-.63814-3.1661 0-5.3996 1.61988-5.3996 3.95154 0 2.25801 1.8653 4.00061 4.2952 4.00061zm.5645-1.61988c-1.5954 0-2.798-1.10446-2.798-2.55255 0-1.47262 1.4971-2.4789 3.657-2.4789 1.1045 0 2.258.22089 3.2643.61359v1.88986c0 .29453-.1718.66268-.4663.95721-.6872.95719-2.1353 1.57079-3.657 1.57079z" />
      <path d="m1224.7601 504.90973c-.1718-.0245-.3927-.0245-.7118-.0245-1.6199.12269-3.1661 1.30083-4.0497 3.06798v-2.9698h-2.0126v12.81182h2.1599v-7.90307c.6872-1.86531 2.4543-2.96978 4.6142-3.01887z" />
      <path d="m1230.1911 518.04061c1.9881 0 3.8288-.83448 4.9824-2.35619l.049.90812c.098.71177.6136 1.30081 1.4726 1.30081.3191 0 .589-.0245 1.0308-.0982v-1.86531c-.4908-.0245-.6872-.24544-.6872-.78541v-5.22779c0-3.23978-2.0126-5.15419-5.3505-5.15419-1.6935 0-3.338.5645-4.9824 1.66899l.7118 1.39898c1.399-.98174 2.7489-1.49717 4.0742-1.49717 2.1353 0 3.3871 1.27628 3.3871 3.3625v1.03083c-.9818-.3927-2.3317-.63814-3.5834-.63814-3.1662 0-5.3996 1.61988-5.3996 3.95154 0 2.25801 1.8653 4.00061 4.2951 4.00061zm.5645-1.61988c-1.5953 0-2.7979-1.10446-2.7979-2.55255 0-1.47262 1.4971-2.4789 3.657-2.4789 1.1044 0 2.258.22089 3.2643.61359v1.88986c0 .29453-.1718.66268-.4664.95721-.6872.95719-2.1353 1.57079-3.657 1.57079z" />
      <path d="m1250.037 518.04061c1.9881 0 3.8288-.83448 4.9824-2.35619l.049.90812c.098.71177.6136 1.30081 1.4726 1.30081.3191 0 .589-.0245 1.0308-.0982v-1.86531c-.4909-.0245-.6872-.24544-.6872-.78541v-5.22779c0-3.23978-2.0126-5.15419-5.3505-5.15419-1.6935 0-3.338.5645-4.9824 1.66899l.7118 1.39898c1.399-.98174 2.7489-1.49717 4.0742-1.49717 2.1353 0 3.3871 1.27628 3.3871 3.3625v1.03083c-.9818-.3927-2.3317-.63814-3.5834-.63814-3.1662 0-5.3996 1.61988-5.3996 3.95154 0 2.25801 1.8653 4.00061 4.2951 4.00061zm.5645-1.61988c-1.5953 0-2.798-1.10446-2.798-2.55255 0-1.47262 1.4972-2.4789 3.6571-2.4789 1.1044 0 2.258.22089 3.2643.61359v1.88986c0 .29453-.1718.66268-.4664.95721-.6872.95719-2.1353 1.57079-3.657 1.57079z" />
      <g transform="translate(6.2315)">
        <path d="m1265.6392 518.04061c1.8407 0 3.6815-1.00629 4.6878-2.65072v1.07992c0 .73632.7363 1.42354 1.5954 1.42354.2699 0 .4908-.0245.9572-.0982v-1.86531c-.4909-.0245-.6873-.24544-.6873-.78541v-15.26613h-2.1598v7.65764c-.9327-1.54626-2.6262-2.77344-4.6879-2.77344-3.387 0-5.8168 3.01888-5.8168 6.65135 0 3.5343 2.5525 6.62679 6.1114 6.62679zm.5154-1.86531c-2.4789 0-4.3933-2.15985-4.3933-4.73693 0-2.45437 1.6689-4.81058 4.1969-4.81058 1.6199 0 3.4607 1.32536 4.0743 2.99434v3.68155c-.3191 1.59535-2.3317 2.87162-3.8779 2.87162z" />
        <path d="m1279.0868 518.04061c1.9881 0 3.8288-.83448 4.9824-2.35619l.049.90812c.098.71177.6136 1.30081 1.4726 1.30081.3191 0 .5891-.0245 1.0308-.0982v-1.86531c-.4908-.0245-.6872-.24544-.6872-.78541v-5.22779c0-3.23978-2.0126-5.15419-5.3505-5.15419-1.6935 0-3.338.5645-4.9824 1.66899l.7118 1.39898c1.399-.98174 2.7489-1.49717 4.0742-1.49717 2.1353 0 3.3871 1.27628 3.3871 3.3625v1.03083c-.9818-.3927-2.3317-.63814-3.5834-.63814-3.1662 0-5.3996 1.61988-5.3996 3.95154 0 2.25801 1.8653 4.00061 4.2951 4.00061zm.5645-1.61988c-1.5953 0-2.798-1.10446-2.798-2.55255 0-1.47262 1.4972-2.4789 3.6571-2.4789 1.1044 0 2.258.22089 3.2643.61359v1.88986c0 .29453-.1718.66268-.4664.95721-.6872.95719-2.1353 1.57079-3.657 1.57079z" />
        <path d="m1295.4276 515.43898c-.2455.14727-1.0309.53997-1.8899.53997-.7608 0-1.399-.41724-1.4481-1.34991v-7.95216h2.8716v-1.69352h-2.8716v-4.27061h-2.1598v4.27061h-1.7426v1.69352h1.7426v8.61484c0 1.84077 1.3254 2.67527 2.8962 2.67527 1.3744 0 2.577-.5645 3.117-.80994z" />
        <path d="m1301.2337 518.04061c1.988 0 3.8288-.83448 4.9824-2.35619l.049.90812c.098.71177.6136 1.30081 1.4727 1.30081.319 0 .589-.0245 1.0308-.0982v-1.86531c-.4909-.0245-.6872-.24544-.6872-.78541v-5.22779c0-3.23978-2.0126-5.15419-5.3506-5.15419-1.6935 0-3.3379.5645-4.9823 1.66899l.7117 1.39898c1.399-.98174 2.7489-1.49717 4.0743-1.49717 2.1353 0 3.387 1.27628 3.387 3.3625v1.03083c-.9817-.3927-2.3316-.63814-3.5834-.63814-3.1661 0-5.3996 1.61988-5.3996 3.95154 0 2.25801 1.8654 4.00061 4.2952 4.00061zm.5645-1.61988c-1.5953 0-2.798-1.10446-2.798-2.55255 0-1.47262 1.4972-2.4789 3.657-2.4789 1.1045 0 2.2581.22089 3.2643.61359v1.88986c0 .29453-.1718.66268-.4663.95721-.6872.95719-2.1353 1.57079-3.657 1.57079z" />
        <path d="m1317.8398 515.26718c0 1.69351 1.0309 2.69981 2.6998 2.69981.7609 0 1.8654-.2209 2.5771-.51542l-.3436-1.74261c-.4172.17181-.9572.29453-1.3254.29453-.9081 0-1.448-.56451-1.448-1.52171v-14.60351h-2.1599z" />
        <path d="m1326.9494 517.79517v-12.81181h-2.1599v12.81181zm0-15.21709v-2.69981h-2.1599v2.69981z" />
        <path d="m1349.762 510.13754c0-3.06795-.9327-5.37507-3.8779-5.37507-2.0862 0-3.7552 1.07992-4.8842 3.11706-.2945-1.81626-1.5953-3.11706-3.7307-3.11706-2.0862 0-3.8288 1.07992-4.8596 2.96979v-2.7489h-1.9635v12.81181h2.1598v-7.73125c.5891-2.01259 2.1353-3.36249 3.8534-3.36249 1.6935 0 2.5526 1.20264 2.5526 3.92699v7.16675h2.1598v-7.70671c.5891-1.98804 2.1108-3.38703 3.8534-3.38703 1.6935 0 2.5771 1.25172 2.5771 3.92699v7.16675h2.1598z" />
        <path d="m1355.2801 517.79517v-12.81181h-2.1598v12.81181zm0-15.21709v-2.69981h-2.1598v2.69981z" />
        <path d="m1364.8882 515.43898c-.2454.14727-1.0308.53997-1.8898.53997-.7609 0-1.399-.41724-1.4481-1.34991v-7.95216h2.8716v-1.69352h-2.8716v-4.27061h-2.1599v4.27061h-1.7426v1.69352h1.7426v8.61484c0 1.84077 1.3254 2.67527 2.8962 2.67527 1.3744 0 2.5771-.5645 3.1171-.80994z" />
        <path d="m1372.8833 518.04061c2.5771 0 4.7615-1.34989 5.596-3.23976l-1.8653-.51541c-.54 1.27627-2.0862 2.13529-3.657 2.13529-2.2335 0-4.1234-1.76714-4.3197-4.29515h10.6274c.024-.14726.049-.49086.049-.83448 0-3.43612-2.528-6.52863-6.4059-6.52863-3.8534 0-6.5532 3.01888-6.5532 6.62681 0 3.60791 2.6753 6.65133 6.5286 6.65133zm-4.2951-7.51036c.1718-2.42983 2.0371-4.1479 4.3197-4.1479 2.2825 0 4.1479 1.69353 4.3688 4.1479z" />
      </g>
      <path d="m1087.2952 645.66613v-17.18185h-2.1779v17.18185z" />
      <path d="m1102.0272 638.11579c0-3.04917-.847-5.29975-3.7751-5.29975-2.2264 0-4.2592 1.1616-5.2514 2.92817v-2.71037h-1.936v12.63229h2.1296v-7.62294c.5808-1.91178 2.4684-3.31536 4.2107-3.31536 1.6698 0 2.4926 1.18579 2.4926 3.87196v7.06634h2.1296z" />
      <path d="m1107.4684 645.66613v-12.63229h-2.1296v12.63229zm0-15.00386v-2.66197h-2.1296v2.66197z" />
      <path d="m1110.0691 639.32578c0 3.55737 2.6378 6.58234 6.4371 6.58234 2.541 0 4.6464-1.33099 5.3966-3.17016l-2.0812-.6292c-.3872 1.06479-1.8876 1.96019-3.3638 1.96019-2.2989 0-4.2107-2.08118-4.2107-4.74317 0-2.68617 1.8392-4.67055 4.1865-4.67055 1.4036 0 2.6378.70179 3.2912 1.88757l2.0812-.65338c-.9196-1.86339-2.8314-3.07338-5.324-3.07338-3.8477 0-6.4129 2.95237-6.4129 6.50974z" />
      <path d="m1126.469 645.66613v-12.63229h-2.1296v12.63229zm0-15.00386v-2.66197h-2.1296v2.66197z" />
      <path d="m1133.1595 645.90812c1.9602 0 3.7751-.82278 4.9125-2.32318l.048.8954c.097.70179.605 1.28259 1.452 1.28259.3146 0 .5808-.0242 1.0163-.0968v-1.83918c-.4839-.0242-.6775-.24201-.6775-.77439v-5.15456c0-3.19437-1.9844-5.08196-5.2756-5.08196-1.6698 0-3.2912.5566-4.9125 1.64559l.7017 1.37938c1.3794-.96798 2.7104-1.47618 4.0172-1.47618 2.1054 0 3.3396 1.25839 3.3396 3.31537v1.01639c-.968-.3872-2.299-.6292-3.5332-.6292-3.1218 0-5.3239 1.59719-5.3239 3.89618 0 2.22637 1.8391 3.94455 4.2349 3.94455zm.5566-1.59717c-1.573 0-2.7588-1.089-2.7588-2.51678 0-1.45198 1.4762-2.44419 3.6058-2.44419 1.0889 0 2.2263.21779 3.2185.605v1.86339c0 .29039-.1694.65339-.4598.94379-.6776.94379-2.1054 1.54879-3.6057 1.54879z" />
      <path d="m1150.0191 632.96125c-.1693-.0242-.3872-.0242-.7017-.0242-1.5972.12107-3.1218 1.28259-3.993 3.02497v-2.92817h-1.9844v12.63229h2.1296v-7.79235c.6776-1.83917 2.42-2.92816 4.5495-2.97655z" />
      <path d="m1156.8616 639.32578c0 3.55737 2.6378 6.58234 6.4372 6.58234 2.541 0 4.6463-1.33099 5.3965-3.17016l-2.0811-.6292c-.3872 1.06479-1.8876 1.96019-3.3638 1.96019-2.299 0-4.2108-2.08118-4.2108-4.74317 0-2.68617 1.8392-4.67055 4.1866-4.67055 1.4036 0 2.6378.70179 3.2912 1.88757l2.0811-.65338c-.9196-1.86339-2.8313-3.07338-5.3239-3.07338-3.8478 0-6.413 2.95237-6.413 6.50974z" />
      <path d="m1176.5077 645.90812c3.7994 0 6.3887-3.02497 6.3887-6.53394 0-3.53317-2.6135-6.55814-6.3887-6.55814-3.751 0-6.3645 3.02497-6.3645 6.55814 0 3.50897 2.5651 6.53394 6.3645 6.53394zm-4.1866-6.50974c0-2.63778 1.8876-4.74315 4.1866-4.74315 2.3232 0 4.2108 2.08118 4.2108 4.69475 0 2.63779-1.8876 4.71897-4.2108 4.71897s-4.1866-2.03278-4.1866-4.67057z" />
      <path d="m1204.5458 638.11579c0-3.02497-.9196-5.29975-3.8236-5.29975-2.057 0-3.7025 1.0648-4.8157 3.07338-.2904-1.79079-1.573-3.07338-3.6784-3.07338-2.057 0-3.7752 1.0648-4.7915 2.92817v-2.71037h-1.936v12.63229h2.1295v-7.62294c.5808-1.98438 2.1054-3.31536 3.7994-3.31536 1.6698 0 2.5168 1.18579 2.5168 3.87196v7.06634h2.1296v-7.59874c.5808-1.96018 2.0812-3.33956 3.7993-3.33956 1.6698 0 2.541 1.23419 2.541 3.87196v7.06634h2.1296z" />
      <path d="m1219.519 645.90812c3.7994 0 6.3888-3.02497 6.3888-6.53394 0-3.53317-2.6136-6.55814-6.3888-6.55814-3.751 0-6.3645 3.02497-6.3645 6.55814 0 3.50897 2.5652 6.53394 6.3645 6.53394zm-4.1865-6.50974c0-2.63778 1.8875-4.74315 4.1865-4.74315 2.3232 0 4.2108 2.08118 4.2108 4.69475 0 2.63779-1.8876 4.71897-4.2108 4.71897s-4.1865-2.03278-4.1865-4.67057z" />
      <path d="m1233.8094 639.32578c0 3.55737 2.6378 6.58234 6.4371 6.58234 2.541 0 4.6464-1.33099 5.3966-3.17016l-2.0812-.6292c-.3872 1.06479-1.8876 1.96019-3.3638 1.96019-2.299 0-4.2107-2.08118-4.2107-4.74317 0-2.68617 1.8391-4.67055 4.1865-4.67055 1.4036 0 2.6378.70179 3.2912 1.88757l2.0812-.65338c-.9196-1.86339-2.8314-3.07338-5.324-3.07338-3.8478 0-6.4129 2.95237-6.4129 6.50974z" />
      <path d="m1253.4554 645.90812c3.7994 0 6.3888-3.02497 6.3888-6.53394 0-3.53317-2.6136-6.55814-6.3888-6.55814-3.7509 0-6.3645 3.02497-6.3645 6.55814 0 3.50897 2.5652 6.53394 6.3645 6.53394zm-4.1865-6.50974c0-2.63778 1.8876-4.74315 4.1865-4.74315 2.3232 0 4.2108 2.08118 4.2108 4.69475 0 2.63779-1.8876 4.71897-4.2108 4.71897-2.3231 0-4.1865-2.03278-4.1865-4.67057z" />
      <path d="m1281.4935 638.11579c0-3.02497-.9196-5.29975-3.8236-5.29975-2.0569 0-3.7025 1.0648-4.8157 3.07338-.2904-1.79079-1.573-3.07338-3.6784-3.07338-2.057 0-3.7751 1.0648-4.7915 2.92817v-2.71037h-1.936v12.63229h2.1296v-7.62294c.5808-1.98438 2.1054-3.31536 3.7993-3.31536 1.6698 0 2.5168 1.18579 2.5168 3.87196v7.06634h2.1296v-7.59874c.5808-1.96018 2.0812-3.33956 3.7994-3.33956 1.6697 0 2.5409 1.23419 2.5409 3.87196v7.06634h2.1296z" />
      <path d="m1291.6049 645.90812c3.3395 0 5.6627-2.95236 5.6627-6.55814 0-3.43636-2.5168-6.53394-5.9773-6.53394-1.9118 0-3.6058 1.04059-4.598 2.58938v-2.37158h-1.8876v17.78684h2.1296v-7.64713c.9438 1.57299 2.5894 2.73457 4.6706 2.73457zm-.6534-1.83917c-1.7182 0-3.3154-1.30679-4.0172-2.97657v-3.60579c.3146-1.54877 2.299-2.83136 3.8236-2.83136 2.4441 0 4.3317 2.15377 4.3317 4.69475 0 2.39579-1.6456 4.71897-4.1381 4.71897z" />
      <path d="m1303.7785 645.90812c2.178 0 4.1382-1.06479 5.2513-2.95236l.048 1.47618c.024.75019.6776 1.30679 1.5004 1.30679.2662 0 .484 0 .968-.0726v-1.83919c-.484-.0242-.6776-.242-.6776-.77439v-10.01871h-2.1296v7.91334c-.7502 1.93597-2.42 3.12176-4.1624 3.12176-1.7907 0-2.6861-1.28259-2.6861-3.87197v-7.16313h-2.1296v7.57454c0 3.48476 1.3794 5.29974 4.0171 5.29974z" />
      <path d="m1320.4658 643.34296c-.242.14516-1.0164.53238-1.8634.53238-.7502 0-1.3794-.41139-1.4278-1.33098v-7.84073h2.8314v-1.66979h-2.8314v-4.21075h-2.1296v4.21075h-1.7182v1.66979h1.7182v8.49412c0 1.81499 1.3068 2.63777 2.8556 2.63777 1.3552 0 2.541-.55659 3.0734-.79858z" />
      <path d="m1326.1905 645.90812c1.9602 0 3.7752-.82278 4.9126-2.32318l.048.8954c.097.70179.605 1.28259 1.452 1.28259.3146 0 .5808-.0242 1.0164-.0968v-1.83918c-.484-.0242-.6776-.24201-.6776-.77439v-5.15456c0-3.19437-1.9844-5.08196-5.2756-5.08196-1.6697 0-3.2911.5566-4.9125 1.64559l.7018 1.37938c1.3794-.96798 2.7104-1.47618 4.0171-1.47618 2.1054 0 3.3396 1.25839 3.3396 3.31537v1.01639c-.968-.3872-2.299-.6292-3.5332-.6292-3.1217 0-5.3239 1.59719-5.3239 3.89618 0 2.22637 1.8392 3.94455 4.235 3.94455zm.5566-1.59717c-1.573 0-2.7588-1.089-2.7588-2.51678 0-1.45198 1.4762-2.44419 3.6058-2.44419 1.089 0 2.2264.21779 3.2186.605v1.86339c0 .29039-.1694.65339-.4598.94379-.6776.94379-2.1054 1.54879-3.6058 1.54879z" />
      <path d="m1341.574 645.90812c1.815 0 3.63-.99219 4.6222-2.61356v1.06479c0 .72599.726 1.40358 1.573 1.40358.2662 0 .484-.0242.9437-.0968v-1.83918c-.4839-.0242-.6775-.24201-.6775-.77439v-15.05226h-2.1296v7.55033c-.9196-1.5246-2.5894-2.73459-4.6222-2.73459-3.3396 0-5.7353 2.97657-5.7353 6.55814 0 3.48477 2.5167 6.53394 6.0257 6.53394zm.5082-1.83917c-2.4442 0-4.3318-2.12958-4.3318-4.67057 0-2.41997 1.6456-4.74315 4.1382-4.74315 1.5972 0 3.4122 1.30679 4.0172 2.95237v3.62997c-.3146 1.57299-2.299 2.83138-3.8236 2.83138z" />
      <path d="m1357.108 645.90812c3.7994 0 6.3887-3.02497 6.3887-6.53394 0-3.53317-2.6135-6.55814-6.3887-6.55814-3.751 0-6.3646 3.02497-6.3646 6.55814 0 3.50897 2.5652 6.53394 6.3646 6.53394zm-4.1866-6.50974c0-2.63778 1.8876-4.74315 4.1866-4.74315 2.3232 0 4.2108 2.08118 4.2108 4.69475 0 2.63779-1.8876 4.71897-4.2108 4.71897s-4.1866-2.03278-4.1866-4.67057z" />
      <path d="m1372.78 632.96125c-.1694-.0242-.3872-.0242-.7018-.0242-1.5972.12107-3.1218 1.28259-3.993 3.02497v-2.92817h-1.9843v12.63229h2.1295v-7.79235c.6776-1.83917 2.42-2.92816 4.5496-2.97655z" />
      <path d="m1097.5075 754.84067h-14.0358v1.93599h5.9289v15.24588h2.178v-15.24588h5.9289z" />
      <path d="m1102.5157 772.26452c2.541 0 4.6948-1.331 5.5176-3.19431l-1.8392-.50822c-.5324 1.25842-2.057 2.1053-3.6057 2.1053-2.2022 0-4.0656-1.74239-4.2592-4.23491h10.4785c.024-.14517.048-.48399.048-.82279 0-3.38798-2.4925-6.43716-6.3161-6.43716-3.7994 0-6.4614 2.97659-6.4614 6.53396 0 3.55732 2.6378 6.55813 6.4372 6.55813zm-4.2349-7.40513c.1694-2.39578 2.0086-4.08976 4.2591-4.08976 2.2506 0 4.0898 1.66978 4.3076 4.08976z" />
      <path d="m1130.2922 764.47219c0-3.02497-.9196-5.29976-3.8236-5.29976-2.057 0-3.7026 1.06482-4.8157 3.0734-.2904-1.7908-1.573-3.0734-3.6784-3.0734-2.057 0-3.7752 1.06482-4.7916 2.92819v-2.71039h-1.9359v12.63231h2.1295v-7.62294c.5808-1.98438 2.1054-3.31537 3.7994-3.31537 1.6698 0 2.5168 1.18579 2.5168 3.87197v7.06634h2.1295v-7.59874c.5808-1.96019 2.0812-3.33957 3.7994-3.33957 1.6698 0 2.541 1.23419 2.541 3.87197v7.06634h2.1296z" />
      <path d="m1136.8462 772.26452c1.9601 0 3.7751-.82278 4.9125-2.32319l.048.89537c.097.70186.605 1.28266 1.4519 1.28266.3146 0 .5808-.025 1.0164-.097v-1.83922c-.484-.0235-.6776-.24198-.6776-.77444v-5.15447c0-3.19438-1.9843-5.08198-5.2755-5.08198-1.6698 0-3.2912.5566-4.9126 1.6456l.7018 1.37939c1.3794-.96798 2.7104-1.47618 4.0172-1.47618 2.1054 0 3.3396 1.25839 3.3396 3.31537v1.01638c-.968-.38719-2.299-.62919-3.5332-.62919-3.1218 0-5.324 1.59719-5.324 3.89621 0 2.22637 1.8392 3.94452 4.235 3.94452zm.5565-1.59723c-1.5729 0-2.7587-1.08901-2.7587-2.51669 0-1.45202 1.4762-2.44421 3.6057-2.44421 1.089 0 2.2264.21778 3.2186.60499v1.86332c0 .29047-.1694.65352-.4598.94385-.6776.94385-2.1054 1.54874-3.6058 1.54874z" />
      <path d="m1158.7613 772.26452c2.541 0 4.6948-1.331 5.5176-3.19431l-1.8392-.50822c-.5324 1.25842-2.057 2.1053-3.6058 2.1053-2.2022 0-4.0655-1.74239-4.2591-4.23491h10.4785c.024-.14517.048-.48399.048-.82279 0-3.38798-2.4926-6.43716-6.3161-6.43716-3.7994 0-6.4614 2.97659-6.4614 6.53396 0 3.55732 2.6378 6.55813 6.4372 6.55813zm-4.2349-7.40513c.1694-2.39578 2.0086-4.08976 4.2591-4.08976 2.2506 0 4.0898 1.66978 4.3076 4.08976z" />
      <path d="m1171.9211 772.26452c3.0492 0 5.0093-1.5004 5.0093-3.84784 0-2.15371-1.5971-2.8313-4.9609-3.62989-2.1538-.53239-2.9766-.79859-2.9766-1.98438 0-1.45198 1.2342-2.08118 2.783-2.08118 1.3794 0 2.7588.45979 3.8236 1.40359l.9679-1.28259c-1.1374-.99221-2.8555-1.6698-4.7431-1.6698-2.6862 0-4.84 1.3794-4.84 3.92038 0 1.98438 1.2826 2.56518 4.3318 3.31537 2.42.58082 3.5574.94373 3.5574 2.20215 0 1.30676-1.1858 2.08121-3.0008 2.08121-1.6214 0-3.0976-.5808-4.5738-1.69406l-.9196 1.42783c1.4036 1.18584 3.5332 1.83921 5.5418 1.83921z" />
      <path d="m1178.6036 765.68219c0 3.55742 2.6378 6.58233 6.4372 6.58233 2.5409 0 4.6463-1.331 5.3965-3.17022l-2.0812-.62913c-.3872 1.06477-1.8876 1.96014-3.3637 1.96014-2.299 0-4.2108-2.08121-4.2108-4.74312 0-2.68618 1.8392-4.67056 4.1866-4.67056 1.4035 0 2.6377.70179 3.2911 1.88757l2.0812-.65337c-.9196-1.86339-2.8314-3.0734-5.3239-3.0734-3.8478 0-6.413 2.95239-6.413 6.50976z" />
      <path d="m1196.7701 772.26452c2.178 0 4.1382-1.06477 5.2514-2.95232l.048 1.47616c.024.7502.6776 1.30676 1.5004 1.30676.2662 0 .484 0 .968-.072v-1.83922c-.484-.0235-.6776-.24199-.6776-.77445v-10.01864h-2.1296v7.91334c-.7502 1.93604-2.42 3.12173-4.1624 3.12173-1.7907 0-2.6861-1.28251-2.6861-3.87193v-7.16314h-2.1296v7.57453c0 3.48479 1.3794 5.29976 4.0171 5.29976z" />
      <path d="m1214.1108 759.31764c-.1695-.0242-.3872-.0242-.7018-.0242-1.5972.12107-3.1218 1.28261-3.993 3.02499v-2.92819h-1.9844v12.63235h2.1296v-7.79239c.6776-1.83918 2.42-2.92816 4.5496-2.97656z" />
      <path d="m1221.4569 772.26452c3.7994 0 6.3887-3.02491 6.3887-6.53394 0-3.53317-2.6135-6.55815-6.3887-6.55815-3.751 0-6.3645 3.02498-6.3645 6.55815 0 3.50903 2.5651 6.53394 6.3645 6.53394zm-4.1866-6.50974c0-2.63777 1.8876-4.74315 4.1866-4.74315 2.3232 0 4.2108 2.08118 4.2108 4.69476 0 2.63771-1.8876 4.71892-4.2108 4.71892s-4.1866-2.03272-4.1866-4.67053z" />
      <path d="m1688.5509 745.93185h-36.7316c-10.1746 0-18.3657 8.19112-18.3657 18.36574v.00004c0 10.17462 8.1911 18.36574 18.3657 18.36574h36.7316c10.1746 0 18.3658-8.19112 18.3658-18.36574v-.00004c0-10.17462-8.1912-18.36574-18.3658-18.36574z" fill-opacity=".2" />
      <path d="m1688.5509 745.93185c-10.1746 0-18.3657 8.19112-18.3657 18.36574v.00004c0 10.17462 8.1911 18.36574 18.3657 18.36574s18.3658-8.19112 18.3658-18.36574v-.00004c0-10.17462-8.1912-18.36574-18.3658-18.36574z" />
      <path d="m1651.8193 621.04468h36.7315c10.1746 0 18.3657 8.19111 18.3657 18.36573v.00005c0 10.17461-8.1911 18.36573-18.3657 18.36573h-36.7315c-10.1746 0-18.3657-8.19112-18.3657-18.36573v-.00005c0-10.17462 8.1911-18.36573 18.3657-18.36573z" fill-opacity=".101961" />
      <path d="m1651.8193 621.04468c10.1746 0 18.3657 8.19111 18.3657 18.36573v.00005c0 10.17461-8.1911 18.36573-18.3657 18.36573s-18.3657-8.19112-18.3657-18.36573v-.00005c0-10.17462 8.1911-18.36573 18.3657-18.36573z" fill-opacity=".501961" />
      <path d="m1688.5509 419.75605h-36.7316c-10.1746 0-18.3657 8.19111-18.3657 18.36573v.00004c0 10.17462 8.1911 18.36574 18.3657 18.36574h36.7316c10.1746 0 18.3658-8.19112 18.3658-18.36574v-.00004c0-10.17462-8.1912-18.36573-18.3658-18.36573z" fill-opacity=".2" />
      <path d="m1688.5509 419.75605c-10.1746 0-18.3657 8.19111-18.3657 18.36573v.00004c0 10.17462 8.1911 18.36574 18.3657 18.36574s18.3658-8.19112 18.3658-18.36574v-.00004c0-10.17462-8.1912-18.36573-18.3658-18.36573z" />
      <path d="m1566.6023 485.87269h132.2334c4.0699 0 7.3463 3.27645 7.3463 7.3463v30.85449c0 4.06985-3.2764 7.34629-7.3463 7.34629h-132.2334c-4.0699 0-7.3463-3.27644-7.3463-7.34629v-30.85449c0-4.06985 3.2764-7.3463 7.3463-7.3463z" />
    </g>
    <path d="m1606.4987 510.11092c2.0586-.34309 3.3254-2.19049 3.3254-4.27542 0-2.82388-2.3225-4.69767-5.6479-4.69767-2.639 0-4.988 1.18762-5.9117 2.95584l1.4252 1.47792c.8181-1.47792 2.3225-2.34883 4.2491-2.34883 1.9792 0 3.4309.8973 3.4309 2.77109 0 1.8474-1.3988 3.21977-3.9324 3.21977h-.739v1.95295h.6862c2.8503 0 4.381 1.42514 4.381 3.64201 0 2.19049-1.4779 3.29893-3.9059 3.29893-2.1905 0-3.5365-.89731-4.3283-2.32244l-1.5571 1.55709c1.1086 1.821 3.2199 2.87667 5.8854 2.87667 3.8004 0 6.3075-2.16411 6.3075-5.41025 0-2.48078-1.4251-4.3018-3.6684-4.69766z" fill="#002bff" />
    <path d="m1625.526 516.60319c1.9794 0 3.9588-1.08205 5.0408-2.85026v1.16122c0 .79174.7918 1.5307 1.7155 1.5307.2903 0 .5277-.0264 1.0292-.10564v-2.00574c-.5278-.0265-.7389-.26392-.7389-.84453v-16.41544h-2.3225v8.23411c-1.0029-1.66266-2.8239-2.98223-5.0407-2.98223-3.642 0-6.2548 3.24613-6.2548 7.15207 0 3.80036 2.7448 7.12567 6.5714 7.12567zm.5542-2.00574c-2.6655 0-4.7239-2.32244-4.7239-5.09354 0-2.63912 1.7945-5.17271 4.5128-5.17271 1.742 0 3.7212 1.42513 4.381 3.21976v3.9587c-.343 1.71544-2.5071 3.08779-4.1699 3.08779z" fill="#002bff" />
    <path d="m1638.7721 516.33929v-13.77632h-2.3224v13.77632zm0-16.36267v-2.90305h-2.3224v2.90305z" fill="#002bff" />
    <path d="m1646.0685 516.60319c2.1377 0 4.117-.8973 5.3575-2.53357l.053.97648c.1058.76535.6597 1.39875 1.5834 1.39875.3431 0 .6334-.0264 1.1084-.10564v-2.00574c-.5278-.0265-.7389-.26392-.7389-.84453v-5.62136c0-3.48368-2.1641-5.5422-5.7533-5.5422-1.821 0-3.5893.60699-5.3575 1.79461l.7653 1.5043c1.5044-1.05565 2.9559-1.60987 4.3811-1.60987 2.296 0 3.642 1.37235 3.642 3.61564v1.10843c-1.0557-.42225-2.5072-.68618-3.8532-.68618-3.4045 0-5.806 1.74184-5.806 4.24901 0 2.42801 2.0056 4.3018 4.6184 4.3018zm.6069-1.74183c-1.7153 0-3.0086-1.1876-3.0086-2.74469 0-1.58348 1.6099-2.66553 3.9324-2.66553 1.1876 0 2.428.23752 3.51.65978v2.03213c0 .3167-.1847.71256-.5014 1.02926-.7389 1.02928-2.2961 1.68905-3.9324 1.68905z" fill="#002bff" />
    <path d="m1662.0007 516.60319c3.3252 0 5.463-1.63627 5.463-4.19623 0-2.34883-1.7418-3.08778-5.4103-3.9587-2.3489-.5806-3.2462-.87091-3.2462-2.16411 0-1.58348 1.346-2.26965 3.0351-2.26965 1.5044 0 3.0086.50144 4.1699 1.5307l1.0557-1.39875c-1.2405-1.08205-3.1143-1.821-5.1729-1.821-2.9294 0-5.2781 1.5043-5.2781 4.27541 0 2.1641 1.3987 2.79749 4.7239 3.61563 2.6393.63338 3.8796 1.02926 3.8796 2.4016 0 1.42514-1.2932 2.26967-3.2725 2.26967-1.7682 0-3.3781-.6334-4.988-1.8474l-1.0029 1.55709c1.5307 1.29318 3.8532 2.00574 6.0437 2.00574z" fill="#002bff" />
    <g fill="#fff">
      <path d="m1628.8438 323.7707c-3.9203 0-5.1302-3.26686-5.1302-6.65475v-8.68748h-2.1779v8.68748c0 4.40425 1.8633 8.61489 7.3323 8.61489 5.2754 0 7.3081-3.96866 7.3081-8.61489v-8.68748h-2.1779v8.68748c0 3.29109-1.1616 6.65475-5.1544 6.65475z" />
      <path d="m1643.8276 325.85184c3.0491 0 5.0093-1.50035 5.0093-3.84765 0-2.15373-1.5973-2.83132-4.9609-3.6299-2.1537-.53237-2.9765-.79855-2.9765-1.98432 0-1.45193 1.2342-2.08112 2.7829-2.08112 1.3793 0 2.7587.45978 3.8235 1.40354l.9679-1.28254c-1.1374-.99216-2.8555-1.66974-4.7431-1.66974-2.6861 0-4.8397 1.37935-4.8397 3.92026 0 1.98432 1.2825 2.56509 4.3317 3.31528 2.4198.58078 3.5572.94376 3.5572 2.20213 0 1.30674-1.1858 2.08111-3.0007 2.08111-1.6213 0-3.0975-.58078-4.5736-1.69394l-.9196 1.42776c1.4035 1.18575 3.5331 1.83913 5.5416 1.83913z" />
      <path d="m1655.253 325.85184c2.1778 0 4.138-1.06476 5.2512-2.95229l.048 1.47614c.024.75017.6775 1.30676 1.5003 1.30676.2662 0 .484 0 .9679-.0726v-1.83914c-.4839-.0242-.6774-.24199-.6774-.77436v-10.01845h-2.1296v7.91312c-.7502 1.93593-2.42 3.12169-4.1623 3.12169-1.7907 0-2.686-1.28256-2.686-3.87186v-7.16295h-2.1296v7.57434c0 3.48467 1.3793 5.2996 4.0171 5.2996z" />
      <path d="m1669.1569 325.85184c1.9601 0 3.7751-.82277 4.9124-2.32312l.048.89536c.097.70178.6049 1.28256 1.4519 1.28256.3146 0 .5808-.0242 1.0163-.0968v-1.83914c-.484-.0243-.6775-.24199-.6775-.77436v-5.15443c0-3.19428-1.9843-5.08181-5.2753-5.08181-1.6699 0-3.2912.55658-4.9125 1.64554l.7017 1.37935c1.3794-.96797 2.7104-1.47614 4.0171-1.47614 2.1053 0 3.3395 1.25834 3.3395 3.31527v1.01636c-.968-.38719-2.299-.62918-3.5331-.62918-3.1216 0-5.3237 1.59716-5.3237 3.89607 0 2.22632 1.839 3.94446 4.2348 3.94446zm.5565-1.59715c-1.5728 0-2.7587-1.08895-2.7587-2.5167 0-1.45194 1.4762-2.44413 3.6057-2.44413 1.089 0 2.2264.21782 3.2184.605v1.86332c0 .2904-.1694.65338-.4597.94377-.6776.94376-2.1053 1.54874-3.6057 1.54874zm3.4121-16.31019h-2.1294l-1.4036 2.44411 1.4036.48397z" />
      <path d="m1686.0162 312.9053c-.1695-.0242-.3873-.0242-.7019-.0242-1.5971.12107-3.1216 1.28256-3.9929 3.02489v-2.9281h-1.9842v12.63196h2.1294v-7.79213c.6776-1.83913 2.42-2.92809 4.5496-2.97648z" />
      <path d="m1690.2578 325.60985v-12.63195h-2.1296v12.63195zm0-15.00345v-2.6619h-2.1296v2.6619z" />
      <path d="m1699.2227 325.85184c3.7992 0 6.3887-3.0249 6.3887-6.53377 0-3.53307-2.6136-6.55796-6.3887-6.55796-3.7508 0-6.3644 3.02489-6.3644 6.55796 0 3.50887 2.5652 6.53377 6.3644 6.53377zm-4.1863-6.50957c0-2.6377 1.8874-4.74303 4.1863-4.74303 2.3232 0 4.2106 2.08113 4.2106 4.69462 0 2.63771-1.8874 4.71885-4.2106 4.71885-2.323 0-4.1863-2.03274-4.1863-4.67044z" />
    </g>
  </g>
</svg>
