<svg height="100" viewBox="0 0 100 100" width="100" xmlns="http://www.w3.org/2000/svg"><path d="m50.000001 199c-26.39605 0-48.000002 21.60394-48.000002 48.00001 0 26.39605 21.603952 47.99999 48.000002 47.99999 26.39606 0 48-21.60394 48-47.99999 0-.0114-.00051-.0228-.00051-.0342h-19.18632c.00002.0114.00051.0228.00051.0342 0 16.02691-12.78677 28.81368-28.81368 28.81368-16.0269 0-28.813188-12.78677-28.813188-28.81368 0-16.0269 12.786288-28.81319 28.813188-28.81319.0114 0 .0228.0005.0342.0005v-19.18681c-.0114-.00001-.0228-.0005-.0342-.0005z" fill="#fff" transform="translate(0 -197)"/></svg>
