<svg height="132.17508" viewBox="0 0 61.734416 34.971324" width="233.32693" xmlns="http://www.w3.org/2000/svg"><g transform="translate(92.578664 6.235661)"><path d="m-81.800328 11.97721c-1.129371-.833143-2.666057-1.481144-4.443429-1.481144-2.703087 0-4.776687 1.407087-4.776687 3.999087 0 2.055086 1.314515 2.832686 3.906515 3.517715 2.258744.592457 3.610287.962743 3.610287 2.295772 0 1.092343-.925715 1.6848-2.554972 1.6848-1.999544 0-3.888001-1.0368-4.517487-1.6848l-.944229 1.777372c1.499658 1.147886 3.425144 1.777372 5.424687 1.777372 2.647544 0 4.813715-1.092343 4.813715-3.776915 0-2.388344-1.666286-3.165944-4.332343-3.813944-2.184687-.536914-3.240001-.851657-3.240001-2.110629 0-1.129372.814629-1.814401 2.554972-1.814401 1.573715 0 3.073372.796115 3.554744 1.333029z" fill="#002bff" stroke-width=".462857"/><path d="m-75.110594 23.918927c3.017829 0 4.980344-2.332801 4.980344-5.017373s-1.962515-5.017372-4.980344-5.017372c-2.999315 0-4.980344 2.3328-4.980344 5.017372s1.944 5.017373 4.980344 5.017373zm-2.888229-4.998859c0-1.851429 1.296-3.295543 2.888229-3.295543 1.610743 0 2.888229 1.4256 2.888229 3.277029s-1.277486 3.277029-2.888229 3.277029-2.888229-1.388571-2.888229-3.258515z" fill="#002bff" stroke-width=".462857"/><path d="m-62.825205 23.918927c2.517943 0 4.295315-2.240229 4.295315-5.035887 0-2.684572-1.925486-4.998858-4.57303-4.998858-1.462629 0-2.684572.759085-3.425143 1.906971v-1.740343h-1.795887v13.626517h2.036572v-5.757944c.685029 1.184915 1.906972 1.999544 3.462173 1.999544zm-.666515-1.740344c-1.184914 0-2.295772-.925714-2.795658-2.110629v-2.536457c.296229-1.073829 1.592229-1.906972 2.647544-1.906972 1.721829 0 3.017829 1.462629 3.017829 3.258515 0 1.6848-1.147886 3.295543-2.869715 3.295543z" fill="#002bff" stroke-width=".462857"/><path d="m-47.996993 17.827725c0-2.110629-.648-3.943543-3.054858-3.943543-1.499657 0-2.8512.796114-3.591772 2.110629v-5.776459h-2.036572v13.515432h2.036572v-5.757944c.407315-1.333029 1.666286-2.277258 2.777144-2.277258 1.1664 0 1.832914.851657 1.832914 2.610515v5.424687h2.036572z" fill="#002bff" stroke-width=".462857"/><path d="m-43.578445 23.733784v-9.682974h-2.036572v9.682974zm0-11.275203v-2.240229h-2.036572v2.240229z" fill="#002bff" stroke-width=".462857"/><path d="m-38.557598 23.918927c1.444115 0 2.777144-.629486 3.647315-1.758858l.05554.610972c.09257.610971.536914 1.055314 1.314515 1.055314.277714 0 .536914-.01851.925714-.09257v-1.740345c-.3888-.01851-.536914-.203657-.536914-.666514v-3.499201c0-2.517943-1.573715-3.943543-4.221258-3.943543-1.370058 0-2.647544.425828-3.888001 1.258971l.629486 1.296001c1.055314-.722058 2.055086-1.110858 3.073372-1.110858 1.518171 0 2.369829.851657 2.369829 2.277258v.666514c-.703543-.277714-1.647772-.444343-2.554972-.444343-2.406858 0-4.091658 1.240458-4.091658 3.054858 0 1.721829 1.407086 3.036344 3.277029 3.036344zm.555429-1.499658c-1.092343 0-1.906972-.740571-1.906972-1.703315 0-1.018285 1.0368-1.721828 2.480915-1.721828.740571 0 1.5552.166628 2.240229.425828v1.277486c0 .222172-.148114.499886-.3888.703543-.481372.629486-1.444115 1.018286-2.425372 1.018286z" fill="#002bff" stroke-width=".462857"/><g fill="#000023"><path d="m-86.547851 7.0457029h-1.335421v-10.2984531h-3.637058v-1.1861682h8.609538v1.1861682h-3.637059z" stroke-width=".402197"/><path d="m-74.356242 7.0457029-1.578939-5.0510338q-.149253-.4634697-.557735-2.10525209h-.06284q-.314217 1.37469819-.549879 2.12096289l-1.626072 5.035323h-1.50824l-2.34877-8.6095382h1.366842q.832675 3.2442876 1.264723 4.941058.439903 1.6967703.502747 2.2859266h.06284q.08641-.4477588.27494-1.1547464.196385-.7148431.337783-1.1311802l1.578939-4.941058h1.413975l1.539662 4.941058q.439903 1.3511319.597012 2.2702158h.06284q.03142-.282795.164964-.8719514.141397-.5891564 1.641782-6.3393224h1.351132l-2.380192 8.6095382z" stroke-width=".402197"/><path d="m-65.243957 7.2028113q-1.908866 0-3.01648-1.1626019-1.099759-1.1626019-1.099759-3.2285768 0-2.08168585 1.021205-3.30713108 1.029059-1.22544522 2.757251-1.22544522 1.618216 0 2.560867 1.06833686.94265 1.06048145.94265 2.80438424v.8248189h-5.930841q.03928 1.5160957.761976 2.3016376.730554.7855418 2.050264.7855418 1.390409 0 2.749396-.581301v1.1626019q-.691277.2985059-1.311855.4241926-.612722.1335421-1.484674.1335421zm-.353494-7.83185189q-1.036915 0-1.657493.67556596-.612722.67556596-.722698 1.86958953h4.501154q0-1.23330066-.549879-1.88530036-.549879-.65985513-1.571084-.65985513z" stroke-width=".402197"/><path d="m-54.568443 7.0457029-.259229-1.2254452h-.06284q-.644144.8091081-1.288289 1.0997585-.636288.2827951-1.594649.2827951-1.280434 0-2.010987-.6598551-.722699-.6598552-.722699-1.877445 0-2.6079988 4.171227-2.7336855l1.461108-.047133v-.5341679q0-1.01334896-.439904-1.49252946-.432048-.48703593-1.390409-.48703593-1.076192 0-2.435179.65985513l-.400627-.99763811q.636289-.34563843 1.390409-.54202383.761976-.1963855 1.523952-.1963855 1.539662 0 2.278071.6834214.746265.68342138.746265 2.1916617v5.8758527zm-2.945782-.9190839q1.21759 0 1.908867-.6677105.699132-.6677106.699132-1.8695895v-.7776864l-1.303999.054988q-1.555373.054988-2.24665.4870359-.683421.4241926-.683421 1.3275657 0 .7069876.424192 1.0761923.432048.3692046 1.201879.3692045z" stroke-width=".402197"/><path d="m-49.619533 2.6388134q.337783-.4791805 1.02906-1.2568669l2.780818-2.9457818h1.547518l-3.487806 3.6684802 3.731324 4.941058h-1.57894l-3.040046-4.0691066-.981928.8483852v3.2207214h-1.288288v-12.2230306h1.288288v6.48072q0 .432048-.06284 1.3354211z" stroke-width=".402197"/><path d="m-40.203233 3.4892628h-1.057657v3.6352074h-.924471v-3.6352074h-.712939v-.4308974l.712939-.282042v-.2820419q0-.7677809.360387-1.1360024.360387-.37213865 1.100747-.37213865.485739 0 .955809.16060725l-.24287.6972704q-.3408-.109683-.650263-.109683-.31338 0-.458318.1958624-.141021.1919453-.141021.579753v.2820419h1.057657z" stroke-width=".200563"/><path d="m-35.620051 4.9503968q0 1.0615746-.544498 1.6569965-.544498.5954219-1.515975.5954219-.607174 0-1.073327-.2742074-.466152-.2742075-.716856-.7873672-.250704-.5131596-.250704-1.1908438 0-1.0537401.54058-1.6452447.540581-.5915047 1.52381-.5915047.94014 0 1.488555.6071737.548415.6032564.548415 1.6295757zm-3.153386 0q0 1.5003065 1.108582 1.5003065 1.096829 0 1.096829-1.5003065 0-1.4846375-1.104664-1.4846375-.579753 0-.842208.3838904-.258539.3838905-.258539 1.1007471z" stroke-width=".200563"/><path d="m-32.3609 2.7136474q.278125 0 .458318.039172l-.0901.8578776q-.195863-.047007-.407394-.047007-.552333 0-.89705.360387-.340801.3603869-.340801.9362226v2.2641701h-.920554v-4.3324773h.720774l.121435.7638636h.04701q.215449-.3878076.560167-.6150081.348635-.2272005.748194-.2272005z" stroke-width=".200563"/></g></g></svg>